STARTFONT 2.1
COMMENT
COMMENT Converted from OpenType font "Q:\font stuff\winfont\Legacy Serif Md ITC TT Medium.ttf" by "otf2bdf 3.0".
COMMENT
FONT -FreeType-Legacy Serif Md ITC TT-Medium-R-Normal--40-400-72-72-P-189-ISO10646-1
SIZE 40 72 72
FONTBOUNDINGBOX 45 46 -5 -11
STARTPROPERTIES 19
FOUNDRY "FreeType"
FAMILY_NAME "Legacy Serif Md ITC TT"
WEIGHT_NAME "Medium"
SLANT "R"
SETWIDTH_NAME "Normal"
ADD_STYLE_NAME ""
PIXEL_SIZE 40
POINT_SIZE 400
RESOLUTION_X 72
RESOLUTION_Y 72
SPACING "P"
AVERAGE_WIDTH 189
CHARSET_REGISTRY "ISO10646"
CHARSET_ENCODING "1"
FONT_ASCENT 35
FONT_DESCENT 11
COPYRIGHT " (c) Copyright 1997 International Typeface Corporation. All rights reserved."
_OTF_FONTFILE "Q:\font stuff\winfont\Legacy Serif Md ITC TT Medium.ttf"
_OTF_PSNAME "LegacySerifMdITCTTMedium"
ENDPROPERTIES
CHARS 252
STARTCHAR 0020
ENCODING 32
SWIDTH 250 0
DWIDTH 10 0
BBX 0 0 0 0
BITMAP
ENDCHAR
STARTCHAR 0021
ENCODING 33
SWIDTH 350 0
DWIDTH 14 0
BBX 5 27 4 -1
BITMAP
78
F8
F8
F8
78
78
78
78
78
70
30
30
30
30
30
30
30
30
20
00
00
00
30
78
F8
78
30
ENDCHAR
STARTCHAR 0022
ENCODING 34
SWIDTH 350 0
DWIDTH 14 0
BBX 9 11 3 15
BITMAP
E700
F780
F780
E700
E700
E300
E300
E300
4300
4300
4100
ENDCHAR
STARTCHAR 0023
ENCODING 35
SWIDTH 500 0
DWIDTH 20 0
BBX 22 27 -1 -1
BITMAP
002060
0060C0
0060C0
0060C0
0060C0
00C180
00C180
00C180
1FFFFC
1FFFF8
3FFFF8
018300
038300
030600
030600
7FFFF0
7FFFE0
FFFFE0
060C00
060C00
0C1800
0C1800
0C1800
0C1800
183000
102000
102000
ENDCHAR
STARTCHAR 0024
ENCODING 36
SWIDTH 525 0
DWIDTH 21 0
BBX 17 33 2 -4
BITMAP
018000
018000
018000
008000
07FE00
1FFE00
3C8E00
788600
788300
788300
788000
788000
7C8000
7F8000
3FC000
1FF000
07FC00
01FE00
00FF00
009F00
008F80
808780
808780
C08700
C08F00
E08E00
FCFC00
FFF800
018000
008000
008000
008000
018000
ENDCHAR
STARTCHAR 0025
ENCODING 37
SWIDTH 675 0
DWIDTH 27 0
BBX 25 27 1 -1
BITMAP
0F800000
39E03000
70F07000
70F06000
F078E000
F078C000
F0798000
F0798000
F07B0000
F0770000
78760000
38EE0000
1C8C0000
03180000
00187C00
0031CE00
00738F00
00638700
00E78780
00C78780
01C78780
01878780
03878780
03078700
0603C700
0601CE00
0000F800
ENDCHAR
STARTCHAR 0026
ENCODING 38
SWIDTH 750 0
DWIDTH 30 0
BBX 28 26 3 -1
BITMAP
00F80000
03FE0000
0E3F0000
0C0F0000
1C0F8000
1C070000
1C0F0000
1E0E0000
1F9C3FE0
0FE00FC0
07F80700
0FFC0E00
1CFE0C00
783F1C00
701F3800
F00FB000
F007E000
F007E000
F003C000
F003E030
F003F020
F806F060
FC1CF860
7FF87FC0
3FF03F80
0FC01F00
ENDCHAR
STARTCHAR 0027
ENCODING 39
SWIDTH 350 0
DWIDTH 14 0
BBX 4 11 5 15
BITMAP
70
F0
F0
F0
70
70
60
60
60
60
60
ENDCHAR
STARTCHAR 0028
ENCODING 40
SWIDTH 325 0
DWIDTH 13 0
BBX 10 37 2 -9
BITMAP
0040
00C0
0180
0380
0700
0E00
0E00
1C00
1C00
3C00
3800
7800
7800
7800
7800
F000
F000
F000
F000
F000
F000
F000
7800
7800
7800
7800
3800
3C00
1C00
1E00
0E00
0E00
0700
0380
0180
00C0
0040
ENDCHAR
STARTCHAR 0029
ENCODING 41
SWIDTH 325 0
DWIDTH 13 0
BBX 10 37 1 -9
BITMAP
8000
C000
7000
7000
3800
1C00
1C00
0E00
0E00
0F00
0700
0780
0780
0780
0780
0380
03C0
03C0
03C0
03C0
03C0
03C0
0780
0780
0780
0780
0700
0F00
0E00
1E00
1C00
1C00
3800
7000
6000
C000
8000
ENDCHAR
STARTCHAR 002A
ENCODING 42
SWIDTH 525 0
DWIDTH 21 0
BBX 15 15 3 11
BITMAP
1830
1C78
1C70
0E60
06C0
0680
F31E
FFFE
E28E
0680
06C0
0C60
1C70
1C70
1830
ENDCHAR
STARTCHAR 002B
ENCODING 43
SWIDTH 525 0
DWIDTH 21 0
BBX 16 17 2 4
BITMAP
0180
0180
0180
0180
0180
0180
0180
FFFF
FFFF
0180
0180
0180
0180
0180
0180
0180
0180
ENDCHAR
STARTCHAR 002C
ENCODING 44
SWIDTH 250 0
DWIDTH 10 0
BBX 8 11 1 -7
BITMAP
1C
3E
3E
1F
0F
07
06
0E
1C
38
E0
ENDCHAR
STARTCHAR 002D
ENCODING 45
SWIDTH 300 0
DWIDTH 12 0
BBX 9 3 1 7
BITMAP
FF80
FF80
FF80
ENDCHAR
STARTCHAR 002E
ENCODING 46
SWIDTH 250 0
DWIDTH 10 0
BBX 5 6 2 -1
BITMAP
30
78
F8
F8
78
70
ENDCHAR
STARTCHAR 002F
ENCODING 47
SWIDTH 400 0
DWIDTH 16 0
BBX 15 37 0 -9
BITMAP
0006
000C
000C
000C
0018
0018
0018
0030
0030
0020
0060
0060
00C0
00C0
00C0
0180
0180
0100
0300
0300
0200
0600
0600
0C00
0C00
0C00
1800
1800
1800
3000
3000
2000
6000
6000
C000
C000
C000
ENDCHAR
STARTCHAR 0030
ENCODING 48
SWIDTH 525 0
DWIDTH 21 0
BBX 17 27 2 -1
BITMAP
03E000
0E3800
1C1C00
381E00
780E00
700F00
700F00
F00F00
F00F00
F00700
F00780
F00780
F00780
F00780
F00780
F00780
F00780
F00700
F00F00
F00F00
700F00
700E00
780E00
381C00
1C1C00
0E3800
07E000
ENDCHAR
STARTCHAR 0031
ENCODING 49
SWIDTH 525 0
DWIDTH 21 0
BBX 14 27 4 -1
BITMAP
0180
0380
0F80
3F80
FF80
0780
0780
0780
0780
0780
0780
0780
0780
0780
0780
0780
0780
0780
0780
0780
0780
0780
0780
0780
0FC0
FFC0
F03C
ENDCHAR
STARTCHAR 0032
ENCODING 50
SWIDTH 525 0
DWIDTH 21 0
BBX 18 27 1 -1
BITMAP
01F000
07FC00
0FFE00
1C3F00
301F00
300F00
200F00
000F00
000F00
000F00
000F00
001E00
001E00
003C00
003800
007000
00E000
01C000
018000
030040
0600C0
0C0080
180180
1FFF80
3FFF80
7FFF80
FFFF00
ENDCHAR
STARTCHAR 0033
ENCODING 51
SWIDTH 525 0
DWIDTH 21 0
BBX 17 27 2 -1
BITMAP
03F000
0FF800
1FFC00
387C00
603E00
201E00
001C00
001C00
003800
003000
00C000
01F800
07FE00
0C3F00
001F00
000F00
000F80
000780
000780
000780
000700
600F00
E00E00
F00C00
F01800
7C3000
1FC000
ENDCHAR
STARTCHAR 0034
ENCODING 52
SWIDTH 525 0
DWIDTH 21 0
BBX 19 27 1 -1
BITMAP
000600
000600
000E00
001E00
003E00
007E00
007E00
00DE00
01DE00
039E00
071E00
061E00
0E1E00
1C1E00
381E00
701E00
6FFFE0
FFFFE0
FFFFE0
001E00
001E00
001E00
001E00
001E00
001E00
001E00
001E00
ENDCHAR
STARTCHAR 0035
ENCODING 53
SWIDTH 525 0
DWIDTH 21 0
BBX 16 27 2 -1
BITMAP
0001
07FF
07FF
07FE
0FFE
0C00
0800
1800
1800
1E00
1F80
3FE0
3FF8
07FC
01FC
007E
003E
001F
001F
001F
400E
E01E
E01C
F01C
F038
7860
1F80
ENDCHAR
STARTCHAR 0036
ENCODING 54
SWIDTH 525 0
DWIDTH 21 0
BBX 17 27 2 -1
BITMAP
000F80
007180
00C000
038000
070000
0E0000
1E0000
3C0000
3C0000
780000
78F800
7BFC00
F63E00
F41F00
F00F00
F00F80
F00780
F00780
F00780
F00780
F00780
780700
780700
380E00
3C0E00
1E1C00
07E000
ENDCHAR
STARTCHAR 0037
ENCODING 55
SWIDTH 525 0
DWIDTH 21 0
BBX 18 27 2 -1
BITMAP
7FFFC0
7FFFC0
7FFF80
7FFF80
E00300
C00700
C00600
800E00
000C00
001C00
001800
003800
003000
007000
00E000
00C000
01C000
018000
038000
030000
070000
0E0000
0E0000
1C0000
1C0000
380000
180000
ENDCHAR
STARTCHAR 0038
ENCODING 56
SWIDTH 525 0
DWIDTH 21 0
BBX 17 27 2 -1
BITMAP
07F000
1C3C00
381E00
381E00
780F00
780F00
780F00
780E00
7C1E00
7E1C00
3F3800
1FF000
0FE000
07F800
0DFE00
387E00
703F00
F01F00
F00F80
F00780
F00780
F00700
F00700
F80F00
780E00
3C3800
0FE000
ENDCHAR
STARTCHAR 0039
ENCODING 57
SWIDTH 525 0
DWIDTH 21 0
BBX 17 27 2 -1
BITMAP
03F000
0C3800
381C00
700E00
700F00
F00F00
F00700
F00780
F00780
F00780
F80780
F80780
7C2780
7FE780
3FCF00
1F0F00
000F00
001F00
001E00
003E00
003C00
007800
00F000
01E000
07C000
FF0000
F80000
ENDCHAR
STARTCHAR 003A
ENCODING 58
SWIDTH 250 0
DWIDTH 10 0
BBX 5 18 2 -1
BITMAP
70
78
F8
F8
70
00
00
00
00
00
00
00
00
70
F8
F8
F8
70
ENDCHAR
STARTCHAR 003B
ENCODING 59
SWIDTH 250 0
DWIDTH 10 0
BBX 8 24 1 -7
BITMAP
1C
3C
3E
3C
1C
00
00
00
00
00
00
00
00
3C
3E
3E
1F
0F
07
06
0E
1C
38
E0
ENDCHAR
STARTCHAR 003C
ENCODING 60
SWIDTH 525 0
DWIDTH 21 0
BBX 14 18 4 3
BITMAP
0004
001C
0078
00F0
03C0
0700
1E00
7800
F800
FE00
7F00
1FC0
0FE0
03F8
01F8
00F8
0038
0018
ENDCHAR
STARTCHAR 003D
ENCODING 61
SWIDTH 525 0
DWIDTH 21 0
BBX 17 7 2 9
BITMAP
FFFF80
FFFF80
000000
000000
000000
FFFF80
FFFF80
ENDCHAR
STARTCHAR 003E
ENCODING 62
SWIDTH 525 0
DWIDTH 21 0
BBX 14 19 3 3
BITMAP
8000
C000
F000
F800
FE00
7F00
1FC0
0FE0
03F8
01FC
0078
00F0
01C0
0780
1E00
3C00
F000
E000
8000
ENDCHAR
STARTCHAR 003F
ENCODING 63
SWIDTH 400 0
DWIDTH 16 0
BBX 13 27 2 -1
BITMAP
7E00
FF00
FFC0
70C0
0060
0030
0030
0038
0038
0078
01F8
07F0
1FF0
3FC0
3F00
3C00
3000
1000
1000
1000
0000
0000
1800
3C00
7C00
3C00
3800
ENDCHAR
STARTCHAR 0040
ENCODING 64
SWIDTH 750 0
DWIDTH 30 0
BBX 27 27 2 -1
BITMAP
001FE000
00E07800
03801E00
07000F00
0E000780
1C0003C0
3C0063C0
3803E3C0
7807E1E0
701CE1E0
F038E1E0
F039E1E0
F071C1C0
F0F1C3C0
F0F3C3C0
F0F3C380
F0F7C700
F0FDC700
F0F9CC00
F071F000
78000000
78000000
3C000000
1E000000
0F001000
03C07000
007F8000
ENDCHAR
STARTCHAR 0041
ENCODING 65
SWIDTH 675 0
DWIDTH 27 0
BBX 27 27 0 -1
BITMAP
000E0000
000F0000
000F0000
001F0000
001F8000
00378000
00378000
0033C000
0063C000
0063E000
00C1E000
00C1E000
01C0F000
0180F000
0180F000
03007800
03FFF800
06007C00
06003C00
0E003C00
0C003E00
0C003E00
1C001F00
1C001F00
3C001F80
7C001FC0
FF807FE0
ENDCHAR
STARTCHAR 0042
ENCODING 66
SWIDTH 625 0
DWIDTH 25 0
BBX 22 27 1 -1
BITMAP
7FFF00
1FFFC0
0F83E0
0F01F0
0F00F0
0F00F0
0F00F0
0F00F0
0F00F0
0F00E0
0F01C0
0F0F00
0FFF80
0F03E0
0F00F8
0F0078
0F003C
0F003C
0F003C
0F003C
0F003C
0F003C
0F0038
0F0078
0F80F0
1F81E0
FE7F00
ENDCHAR
STARTCHAR 0043
ENCODING 67
SWIDTH 675 0
DWIDTH 27 0
BBX 24 27 2 -1
BITMAP
003FF3
01E03E
03800E
0E000E
1C0006
3C0006
380006
780006
700000
F00000
F00000
F00000
F00000
F00000
F00000
F00000
F00000
F00000
780000
780000
780002
3C0002
1E0006
0F000E
07801E
01E07C
003FF0
ENDCHAR
STARTCHAR 0044
ENCODING 68
SWIDTH 775 0
DWIDTH 31 0
BBX 28 27 1 -1
BITMAP
7FFFC000
0FC07800
0F801E00
0F800700
0F000380
0F0003C0
0F0001E0
0F0001E0
0F0000F0
0F0000F0
0F0000F0
0F0000F0
0F0000F0
0F0000F0
0F0000F0
0F0000F0
0F0000F0
0F0000F0
0F0000E0
0F0001E0
0F0001C0
0F0003C0
0F000780
0F800F00
0F801E00
3FC07800
F07FC000
ENDCHAR
STARTCHAR 0045
ENCODING 69
SWIDTH 600 0
DWIDTH 24 0
BBX 22 27 1 -1
BITMAP
7003F8
7FFC78
1E0018
1E0018
1E0010
1E0010
1E0000
1E0000
1E0000
1E0040
1E0040
1E00C0
1FFFC0
1FFFC0
1E00C0
1E0040
1E0040
1E0000
1E0000
1E000C
1E000C
1E0018
1E0038
1F0078
1FFFF8
1FFFF8
F803F0
ENDCHAR
STARTCHAR 0046
ENCODING 70
SWIDTH 550 0
DWIDTH 22 0
BBX 21 27 1 -1
BITMAP
FFFFF8
1F80F0
0F0030
0F0030
0F0030
0F0010
0F0010
0F0000
0F0000
0F0040
0F0040
0F00C0
0FFFC0
0FFFC0
0F00C0
0F0040
0F0040
0F0000
0F0000
0F0000
0F0000
0F0000
0F0000
0F0000
1F8000
3F8000
FFF000
ENDCHAR
STARTCHAR 0047
ENCODING 71
SWIDTH 750 0
DWIDTH 30 0
BBX 27 27 2 -1
BITMAP
001FFB00
00E01F00
03800700
06000700
0E000300
1C000300
38000300
78000000
78000000
70000000
F0000000
F0000000
F0000000
F000FFE0
F0001FC0
F0000F00
F0000F00
F0000F00
78000F00
78000F00
78000F00
3C000F00
1E000F00
0F000F00
07800F00
01E03F80
003FF800
ENDCHAR
STARTCHAR 0048
ENCODING 72
SWIDTH 800 0
DWIDTH 32 0
BBX 29 27 1 -1
BITMAP
7FF03FF8
0FE00FF0
0F8007C0
0F8003C0
0F0003C0
0F0003C0
0F0003C0
0F0003C0
0F0003C0
0F0003C0
0F0003C0
0F0003C0
0FFFFFC0
0F0003C0
0F0003C0
0F0003C0
0F0003C0
0F0003C0
0F0003C0
0F0003C0
0F0003C0
0F0003C0
0F0007C0
0F8007C0
0F8007C0
1FC01FF0
FFF07FF8
ENDCHAR
STARTCHAR 0049
ENCODING 73
SWIDTH 350 0
DWIDTH 14 0
BBX 12 27 1 -1
BITMAP
FFF0
1F80
1F00
0F00
0F00
0F00
0F00
0F00
0F00
0F00
0F00
0F00
0F00
0F00
0F00
0F00
0F00
0F00
0F00
0F00
0F00
0F00
0F00
1F00
1F00
3F80
FFF0
ENDCHAR
STARTCHAR 004A
ENCODING 74
SWIDTH 350 0
DWIDTH 14 0
BBX 17 34 -3 -8
BITMAP
040780
03FF80
007C00
007800
007800
007800
007800
007800
007800
007800
007800
007800
007800
007800
007800
007800
007800
007800
007800
007800
007800
007800
007800
007800
007800
007800
007000
007000
00E000
00E000
71C000
FF8000
FF0000
7C0000
ENDCHAR
STARTCHAR 004B
ENCODING 75
SWIDTH 675 0
DWIDTH 27 0
BBX 26 27 2 -1
BITMAP
E3C10F80
7F00FF00
3E007C00
3E007800
1E00F000
1E01E000
1E038000
1E070000
1E0E0000
1E3C0000
1E700000
1EF00000
1FF80000
1FFC0000
1E7E0000
1E3F0000
1E1F0000
1E0F8000
1E0FC000
1E07E000
1E03F000
1E01F800
1E00F800
1E007C00
3E007E00
7F007F00
FFC1FFC0
ENDCHAR
STARTCHAR 004C
ENCODING 76
SWIDTH 550 0
DWIDTH 22 0
BBX 21 27 1 -1
BITMAP
E0E000
FFC000
1F8000
0F0000
0F0000
0F0000
0F0000
0F0000
0F0000
0F0000
0F0000
0F0000
0F0000
0F0000
0F0000
0F0000
0F0000
0F0000
0F0000
0F0008
0F0008
0F0018
0F0018
0F0038
0F8070
3FFFF0
FC0030
ENDCHAR
STARTCHAR 004D
ENCODING 77
SWIDTH 925 0
DWIDTH 37 0
BBX 35 27 1 -1
BITMAP
FF80001FE0
1F80001F80
0F80003F00
0FC0003E00
07C0003E00
0FE0007E00
0FE0006E00
0FE000EE00
0EF000CE00
0EF001CE00
0E78018E00
0E78038E00
0E3C030E00
0E3C070E00
0E1E060E00
0C1E0E0E00
0C0F0C0E00
0C0F1C0E00
0C07980E00
0C07B81E00
0C07F01E00
1C03F01E00
1C03E01E00
1C01E01E00
1E01C01F00
3F80803F80
FFE001FFE0
ENDCHAR
STARTCHAR 004E
ENCODING 78
SWIDTH 775 0
DWIDTH 31 0
BBX 30 27 1 -1
BITMAP
C6000C1C
7F000FFC
1F8003E0
1FC001C0
1FC001C0
0FE001C0
0FF001C0
0DF801C0
0CFC00C0
0CFE00C0
1C7F00C0
1C3F80C0
1C1FC0C0
1C0FE0C0
1C07F0C0
1C03F0C0
1C01F8C0
1C00FCC0
1C007EC0
1C003FC0
3C001FC0
3C000FC0
3C0007C0
3C0007C0
3C0003C0
FE0001C0
81C000C0
ENDCHAR
STARTCHAR 004F
ENCODING 79
SWIDTH 800 0
DWIDTH 32 0
BBX 28 27 2 -1
BITMAP
003FC000
01C0F800
03003E00
0E000F00
1C000780
3C0007C0
380003C0
780001E0
700001E0
F00001E0
F00000F0
F00000F0
F00000F0
F00000F0
F00000F0
F00000F0
F00000F0
F80000E0
780000E0
780001E0
3C0001C0
3C000380
1E000380
0F000700
07800C00
01E03800
007FC000
ENDCHAR
STARTCHAR 0050
ENCODING 80
SWIDTH 575 0
DWIDTH 23 0
BBX 21 27 1 -1
BITMAP
FFFF00
1F03C0
0F01E0
0F00F0
0F00F0
0F0078
0F0078
0F0078
0F0078
0F0078
0F0078
0F00F0
0F00E0
0F01E0
0F0780
0FFE00
0F0000
0F0000
0F0000
0F0000
0F0000
0F0000
0F0000
0F0000
1F0000
3F8000
FFF000
ENDCHAR
STARTCHAR 0051
ENCODING 81
SWIDTH 800 0
DWIDTH 32 0
BBX 30 34 2 -8
BITMAP
003FC000
01C0F800
03001E00
0E000F00
1C000780
380003C0
380003C0
780001E0
700001E0
F00001E0
F00000F0
F00000F0
F00000F0
F00000F0
F00000F0
F00000F0
F80000F0
F80000E0
780001E0
7C0001E0
3C0003C0
3E000380
1F000780
0FC01F00
03F8FC00
00FFF800
0007C000
0003E000
0001F000
0000F800
00007C00
00003F00
00000FC4
000001F8
ENDCHAR
STARTCHAR 0052
ENCODING 82
SWIDTH 675 0
DWIDTH 27 0
BBX 27 27 1 -1
BITMAP
007F8000
7F83E000
1F01F000
1F00F000
1F007800
1E007800
1E007800
1E007800
1E007800
1E007800
1E007800
1E007000
1E00E000
1E03C000
1FFE0000
1E0F0000
1E0F0000
1E078000
1E07C000
1E03C000
1E03E000
1E01F000
1E00F000
1F007800
1F003E00
3F001F00
FFE007E0
ENDCHAR
STARTCHAR 0053
ENCODING 83
SWIDTH 550 0
DWIDTH 22 0
BBX 19 27 2 -1
BITMAP
03FC80
0E0F80
1C0780
380380
780180
780180
780180
780000
7C0000
7F0000
7FC000
3FF000
1FFC00
0FFE00
03FF80
007FC0
001FC0
000FC0
0003E0
8003E0
C001E0
C001C0
C003C0
E00380
F00780
FC0E00
87F800
ENDCHAR
STARTCHAR 0054
ENCODING 84
SWIDTH 650 0
DWIDTH 26 0
BBX 26 27 0 -1
BITMAP
700001C0
7FFFFFC0
7FFFFFC0
701E0180
601E0180
C01E0180
C01E0180
001E0000
001E0000
001E0000
001E0000
001E0000
001E0000
001E0000
001E0000
001E0000
001E0000
001E0000
001E0000
001E0000
001E0000
001E0000
001E0000
001E0000
001E0000
00FF0000
01C0E000
ENDCHAR
STARTCHAR 0055
ENCODING 85
SWIDTH 725 0
DWIDTH 29 0
BBX 28 27 1 -1
BITMAP
E0F03070
FFC03FC0
3E000F80
3E000780
1E000300
1E000300
1E000300
1E000300
1E000300
1E000300
1E000300
1E000300
1E000300
1E000300
1E000300
1E000300
1E000300
1E000300
1E000300
1E000300
1E000700
1F000600
1F800E00
0FE03C00
07FFF800
03FFF000
007F8000
ENDCHAR
STARTCHAR 0056
ENCODING 86
SWIDTH 650 0
DWIDTH 26 0
BBX 26 27 0 -1
BITMAP
FFC07FC0
7F001F80
3F000700
1F000700
1F000600
0F000600
0F800E00
0F800C00
07801C00
07C01800
03C01800
03C03000
03E03000
01E06000
01E06000
01F04000
00F0C000
00F0C000
00798000
00798000
007B0000
003F0000
003E0000
003E0000
001E0000
001C0000
001C0000
ENDCHAR
STARTCHAR 0057
ENCODING 87
SWIDTH 950 0
DWIDTH 38 0
BBX 38 27 1 -1
BITMAP
C1DC03E20C
FE0FFFC1F8
7E07C380F0
3E07C300E0
3E07C300E0
1E03C200C0
1F03E60180
0F01E40180
0F01EC0300
0F80F80300
0780F80600
07C0F80600
03C0780E00
03C0780C00
03E07C0C00
01E0FC1800
01E0FE1800
00F19E3000
00F19E3000
00FB0F6000
007B0F6000
007E0FE000
007E07C000
003C07C000
003C078000
003C038000
0018038000
ENDCHAR
STARTCHAR 0058
ENCODING 88
SWIDTH 675 0
DWIDTH 27 0
BBX 26 27 0 -1
BITMAP
27F070C0
1FE07FC0
0FC00F00
07C00E00
03E00C00
03E01C00
01F03800
00F83000
00F86000
007CC000
003F8000
003F0000
001F0000
000F8000
001F8000
003FC000
0033E000
0063E000
00E1F000
01C0F800
0380F800
07007C00
07007E00
0E003E00
1E003F00
7F003FC0
C0C1FFC0
ENDCHAR
STARTCHAR 0059
ENCODING 89
SWIDTH 600 0
DWIDTH 24 0
BBX 25 27 0 -1
BITMAP
FFC0FF80
FF003F00
3E001E00
3F001C00
1F003800
0F803000
0F806000
07C06000
03C0C000
03E18000
01F18000
01F30000
00FA0000
007E0000
007C0000
007C0000
003C0000
003C0000
003C0000
003C0000
003C0000
003C0000
003C0000
003C0000
007C0000
01FE0000
03FFC000
ENDCHAR
STARTCHAR 005A
ENCODING 90
SWIDTH 625 0
DWIDTH 25 0
BBX 23 27 1 -1
BITMAP
1F0FFE
3FFFFE
3FFE7C
3800F8
3001F0
3001F0
6003E0
0007C0
000780
000F00
001F00
001E00
003C00
007800
00F800
00F000
01E000
03E000
03C000
078006
0F0006
1F000E
1E000E
3C007C
7FFFFC
FFFFFC
C0000C
ENDCHAR
STARTCHAR 005B
ENCODING 91
SWIDTH 325 0
DWIDTH 13 0
BBX 9 37 4 -9
BITMAP
FF80
F000
F000
F000
F000
F000
F000
F000
F000
F000
F000
F000
F000
F000
F000
F000
F000
F000
F000
F000
F000
F000
F000
F000
F000
F000
F000
F000
F000
F000
F000
F000
F000
F000
F000
F000
FF80
ENDCHAR
STARTCHAR 005C
ENCODING 92
SWIDTH 400 0
DWIDTH 16 0
BBX 15 37 1 -9
BITMAP
C000
C000
C000
6000
6000
2000
3000
3000
1800
1800
0800
0C00
0C00
0400
0600
0600
0300
0300
0300
0180
0180
0080
00C0
00C0
0040
0060
0060
0030
0030
0030
0018
0018
0018
000C
000C
000C
0006
ENDCHAR
STARTCHAR 005D
ENCODING 93
SWIDTH 325 0
DWIDTH 13 0
BBX 9 37 1 -9
BITMAP
FF80
0780
0780
0780
0780
0780
0780
0780
0780
0780
0780
0780
0780
0780
0780
0780
0780
0780
0780
0780
0780
0780
0780
0780
0780
0780
0780
0780
0780
0780
0780
0780
0780
0780
0780
0780
FF80
ENDCHAR
STARTCHAR 005E
ENCODING 94
SWIDTH 475 0
DWIDTH 19 0
BBX 21 16 -1 10
BITMAP
002000
003000
007800
00F800
00FC00
01FC00
03E600
03E700
07C300
0F8180
0F81C0
1F00C0
3E0060
3C0060
7C0030
F80038
ENDCHAR
STARTCHAR 005F
ENCODING 95
SWIDTH 475 0
DWIDTH 19 0
BBX 19 3 0 -7
BITMAP
FFFFE0
FFFFE0
FFFFE0
ENDCHAR
STARTCHAR 0060
ENCODING 96
SWIDTH 525 0
DWIDTH 21 0
BBX 8 6 5 20
BITMAP
F0
F8
3C
1C
06
03
ENDCHAR
STARTCHAR 0061
ENCODING 97
SWIDTH 475 0
DWIDTH 19 0
BBX 18 18 2 -1
BITMAP
03F000
0FF800
3FF800
787C00
787C00
003C00
003C00
003C00
003C00
03FC00
3C7C00
F03C00
F03800
F07800
F07CC0
FFFFC0
FFBF00
7C3C00
ENDCHAR
STARTCHAR 0062
ENCODING 98
SWIDTH 575 0
DWIDTH 23 0
BBX 21 29 0 -1
BITMAP
070000
7F0000
FF0000
3F0000
1E0000
1E0000
1E0000
1E0000
1E0000
1E0000
1E0000
1E3F80
1FFFC0
1F07E0
1E01F0
1E00F0
1E00F8
1E0078
1E0078
1E0078
1E0078
1E0078
1E0070
1E0070
1E00E0
1E00E0
1F0180
1F8300
0FFC00
ENDCHAR
STARTCHAR 0063
ENCODING 99
SWIDTH 450 0
DWIDTH 18 0
BBX 14 18 2 -1
BITMAP
03F8
0FFC
1FFC
3818
7000
7000
F000
F000
F000
F000
F000
F000
F800
F804
7E1C
7FF8
3FF0
0FC0
ENDCHAR
STARTCHAR 0064
ENCODING 100
SWIDTH 575 0
DWIDTH 23 0
BBX 21 29 2 -1
BITMAP
000180
000780
001F80
001F80
000F80
000780
000780
000780
000780
000780
000780
03FF80
0C1F80
180F80
300F80
700780
700780
F00780
F00780
F00780
F00780
F00780
F00780
F80780
F80780
7C0780
7E0FD8
3FF7F0
0F8700
ENDCHAR
STARTCHAR 0065
ENCODING 101
SWIDTH 450 0
DWIDTH 18 0
BBX 15 18 2 -1
BITMAP
07C0
1C70
3838
703C
701C
F03E
F1FE
FFE0
F800
F000
F000
F000
F800
F804
7E0C
7FF8
3FF0
0FC0
ENDCHAR
STARTCHAR 0066
ENCODING 102
SWIDTH 350 0
DWIDTH 14 0
BBX 18 29 1 -1
BITMAP
003F00
00FF80
03FFC0
0783C0
0F0180
0F0000
1E0000
1E0000
1E0000
1E0000
1E0000
7FF000
FFF000
1E0000
1E0000
1E0000
1E0000
1E0000
1E0000
1E0000
1E0000
1E0000
1E0000
1E0000
1E0000
1E0000
1E0000
7F0000
FFE000
ENDCHAR
STARTCHAR 0067
ENCODING 103
SWIDTH 525 0
DWIDTH 21 0
BBX 19 28 1 -11
BITMAP
03FFE0
0E3FE0
1C1F00
3C0F00
380F00
780F00
780F00
7C0F00
7C0F00
3E0E00
3F9C00
1FF000
07C000
060000
1C0000
3FC000
1FFF80
1FFFC0
03FFE0
0E03E0
3C01E0
7801E0
F001E0
F001C0
F80380
7C0F00
7FFC00
1FE000
ENDCHAR
STARTCHAR 0068
ENCODING 104
SWIDTH 600 0
DWIDTH 24 0
BBX 22 29 1 -1
BITMAP
060000
3E0000
7E0000
1E0000
1E0000
1E0000
1E0000
1E0000
1E0000
1E0000
1E0000
1E0F80
1E7FC0
1FFFE0
1F87E0
1E01E0
1E01E0
1E01E0
1E01E0
1E01E0
1E01E0
1E01E0
1E01E0
1E01E0
1E01E0
1E01E0
1E03E0
7F07F0
FFC7EC
ENDCHAR
STARTCHAR 0069
ENCODING 105
SWIDTH 300 0
DWIDTH 12 0
BBX 10 28 1 -1
BITMAP
0C00
1E00
1E00
1E00
0C00
0000
0000
0000
0000
0000
0600
3E00
FE00
7E00
1E00
1E00
1E00
1E00
1E00
1E00
1E00
1E00
1E00
1E00
1E00
3E00
FF00
E0C0
ENDCHAR
STARTCHAR 006A
ENCODING 106
SWIDTH 325 0
DWIDTH 13 0
BBX 10 38 0 -11
BITMAP
0180
03C0
03C0
03C0
0180
0000
0000
0000
0000
0000
00C0
03C0
0FC0
1FC0
07C0
03C0
03C0
03C0
03C0
03C0
03C0
03C0
03C0
03C0
03C0
03C0
03C0
03C0
03C0
03C0
03C0
03C0
0380
0380
0700
7E00
FC00
F800
ENDCHAR
STARTCHAR 006B
ENCODING 107
SWIDTH 550 0
DWIDTH 22 0
BBX 21 29 1 -1
BITMAP
0E0000
7E0000
FE0000
1E0000
1E0000
1E0000
1E0000
1E0000
1E0000
1E0000
1E0000
1E1FF0
1E07E0
1E0780
1E0E00
1E1C00
1E3800
1E6000
1EF000
1FF800
1E7800
1E3C00
1E3E00
1E1F00
1E0F80
1E07C0
1E07E0
7F83F0
FFC7F8
ENDCHAR
STARTCHAR 006C
ENCODING 108
SWIDTH 300 0
DWIDTH 12 0
BBX 11 29 1 -1
BITMAP
0E00
7E00
FE00
3E00
1E00
1E00
1E00
1E00
1E00
1E00
1E00
1E00
1E00
1E00
1E00
1E00
1E00
1E00
1E00
1E00
1E00
1E00
1E00
1E00
1E00
1E00
1E00
7F00
FFE0
ENDCHAR
STARTCHAR 006D
ENCODING 109
SWIDTH 875 0
DWIDTH 35 0
BBX 33 18 1 -1
BITMAP
061F01F000
1E7FCFF800
7EFFFFFC00
FF87F07C00
1E03E03C00
1E03C03C00
1E03C03C00
1E03C03C00
1E03C03C00
1E03C03C00
1E03C03C00
1E03C03C00
1E03C03C00
1E03C03C00
1E03C03C00
1E03C03E00
3FC3F07E00
F0CE09C180
ENDCHAR
STARTCHAR 006E
ENCODING 110
SWIDTH 600 0
DWIDTH 24 0
BBX 22 18 1 -1
BITMAP
060F80
1E7FC0
FFFFE0
FF83E0
1E01E0
1E01E0
1E01E0
1E01E0
1E01E0
1E01E0
1E01E0
1E01E0
1E01E0
1E01E0
1E01E0
1E01E0
3F07F0
FFCFFC
ENDCHAR
STARTCHAR 006F
ENCODING 111
SWIDTH 550 0
DWIDTH 22 0
BBX 19 18 2 -1
BITMAP
03F800
0C3E00
380F00
380780
7007C0
F003C0
F003C0
F003E0
F001E0
F001E0
F001C0
F001C0
F003C0
780380
780380
3C0700
1F0C00
07F000
ENDCHAR
STARTCHAR 0070
ENCODING 112
SWIDTH 575 0
DWIDTH 23 0
BBX 20 28 1 -11
BITMAP
063F00
0FFF80
3F0FC0
7E03E0
1E01E0
1E01F0
1E00F0
1E00F0
1E00F0
1E00F0
1E00F0
1E00F0
1E00E0
1E01E0
1E01C0
1F8380
1FFF00
1EFC00
1E0000
1E0000
1E0000
1E0000
1E0000
1E0000
1E0000
1E0000
3F0000
FFC000
ENDCHAR
STARTCHAR 0071
ENCODING 113
SWIDTH 550 0
DWIDTH 22 0
BBX 20 28 2 -11
BITMAP
01FD80
0E1F80
180780
3807C0
7007C0
7003C0
F003C0
F003C0
F003C0
F003C0
F003C0
F003C0
F003C0
F803C0
7C03C0
7E0FC0
3FF3C0
0FC3C0
0003C0
0003C0
0003C0
0003C0
0003C0
0003C0
0003C0
0007C0
000FE0
003FF0
ENDCHAR
STARTCHAR 0072
ENCODING 114
SWIDTH 400 0
DWIDTH 16 0
BBX 14 18 2 -1
BITMAP
0C38
3CFC
FDFC
FE38
7C10
7C00
7C00
7C00
7C00
7C00
7C00
7C00
7C00
7C00
7C00
7C00
FC00
83C0
ENDCHAR
STARTCHAR 0073
ENCODING 115
SWIDTH 400 0
DWIDTH 16 0
BBX 13 18 2 -1
BITMAP
0FF0
3C70
3830
7818
7800
7C00
7E00
7F80
3FE0
1FF0
07F0
01F8
80F8
8078
C070
E070
F0E0
1F80
ENDCHAR
STARTCHAR 0074
ENCODING 116
SWIDTH 350 0
DWIDTH 14 0
BBX 13 21 1 -1
BITMAP
0600
0E00
1C00
7FF8
FFF8
3C00
3C00
3C00
3C00
3C00
3C00
3C00
3C00
3C00
3C00
3E00
3E00
1F18
1FF8
1FE0
0F80
ENDCHAR
STARTCHAR 0075
ENCODING 117
SWIDTH 600 0
DWIDTH 24 0
BBX 22 18 1 -1
BITMAP
0E01E0
FE0FE0
FC01E0
3C01E0
3C01E0
3C01E0
3C01E0
3C01E0
3C01E0
3C01E0
3C01E0
3C01E0
3E01E0
3E01E0
3F07E0
1FFDFC
1FF1F8
07C1C0
ENDCHAR
STARTCHAR 0076
ENCODING 118
SWIDTH 450 0
DWIDTH 18 0
BBX 19 18 0 -1
BITMAP
FF0FE0
7C03C0
7C0180
3E0380
3E0300
1E0700
1F0600
0F0600
0F0C00
078C00
079800
07D800
03F000
03F000
01E000
01E000
01C000
00C000
ENDCHAR
STARTCHAR 0077
ENCODING 119
SWIDTH 700 0
DWIDTH 28 0
BBX 28 18 0 -1
BITMAP
FF3FE7F0
7E0FC0E0
3E0F80E0
1E07C0C0
1E07C0C0
1F07C180
0F07C180
0F07C100
078DE300
078DE200
0799E600
03D8F400
03F0FC00
01F0F800
01F07800
01E07800
00E07000
00E07000
ENDCHAR
STARTCHAR 0078
ENCODING 120
SWIDTH 475 0
DWIDTH 19 0
BBX 19 18 0 -1
BITMAP
7F8FE0
3F03C0
1F0380
0F8700
0F8E00
07CC00
07F800
03F000
03E000
01F000
037800
037800
063C00
0C3E00
181E00
381F00
7C0FC0
FE3FE0
ENDCHAR
STARTCHAR 0079
ENCODING 121
SWIDTH 450 0
DWIDTH 18 0
BBX 19 28 0 -11
BITMAP
FF0FE0
7E03C0
3C0380
3C0300
3E0300
1E0600
1E0600
0F0C00
0F0C00
0F1800
079800
079000
03B000
03E000
03E000
01C000
01C000
018000
018000
010000
030000
060000
060000
0C0000
1C0000
380000
780000
700000
ENDCHAR
STARTCHAR 007A
ENCODING 122
SWIDTH 450 0
DWIDTH 18 0
BBX 16 18 1 -1
BITMAP
3FFF
7FFF
703E
603C
4078
40F0
00F0
01E0
03C0
0780
0780
0F01
1E03
3C03
3C07
78FE
FFFE
F002
ENDCHAR
STARTCHAR 007B
ENCODING 123
SWIDTH 325 0
DWIDTH 13 0
BBX 12 37 1 -9
BITMAP
01F0
0780
0F00
0F00
0F00
0F00
0F00
0F00
0F00
0F00
0F00
1F00
1F00
1E00
1E00
1E00
1E00
3C00
F000
3C00
1E00
1E00
1E00
1E00
0F00
0F00
0F00
0F00
0F00
1F00
0F00
0F00
0F00
0F00
0F00
0780
01F0
ENDCHAR
STARTCHAR 007C
ENCODING 124
SWIDTH 475 0
DWIDTH 19 0
BBX 3 31 8 -6
BITMAP
E0
E0
E0
E0
E0
E0
E0
E0
E0
E0
E0
E0
E0
E0
E0
E0
E0
E0
E0
E0
E0
E0
E0
E0
E0
E0
E0
E0
E0
E0
E0
ENDCHAR
STARTCHAR 007D
ENCODING 125
SWIDTH 325 0
DWIDTH 13 0
BBX 12 37 1 -9
BITMAP
F000
3C00
1E00
1E00
1E00
0E00
0F00
0F00
0F00
0F00
0F00
0F00
1F00
0F00
0F00
0F00
0F00
0780
01F0
0780
0F00
0F00
0F00
0F00
0F00
0F00
0F00
0F00
0F00
0F00
0E00
1E00
1E00
1E00
1E00
3C00
F000
ENDCHAR
STARTCHAR 007E
ENCODING 126
SWIDTH 625 0
DWIDTH 25 0
BBX 15 5 5 23
BITMAP
1E02
3F86
63FC
C0F0
8000
ENDCHAR
STARTCHAR 00A0
ENCODING 160
SWIDTH 250 0
DWIDTH 10 0
BBX 0 0 0 0
BITMAP
ENDCHAR
STARTCHAR 00A1
ENCODING 161
SWIDTH 350 0
DWIDTH 14 0
BBX 5 26 4 -9
BITMAP
70
F8
F8
78
70
00
00
10
10
10
10
10
30
30
38
38
38
78
78
78
78
78
F8
F8
F8
F0
ENDCHAR
STARTCHAR 00A2
ENCODING 162
SWIDTH 525 0
DWIDTH 21 0
BBX 15 26 3 -1
BITMAP
0080
0080
0080
00FC
03FE
07FE
1C8C
3880
3880
7080
7080
F080
F080
F080
F880
7880
7C80
7E86
3FFE
1FF8
07F0
0080
0080
0080
0080
0080
ENDCHAR
STARTCHAR 00A3
ENCODING 163
SWIDTH 525 0
DWIDTH 21 0
BBX 19 27 2 -1
BITMAP
00FC00
03FE00
07FF00
0F0F00
1C0F00
1C0700
3C0000
3C0000
3C0000
3C0000
3C0000
3E0000
3E0000
1E0000
FFF000
0F0000
0F0000
0F0000
070000
070000
0601C0
0601E0
1FC060
7FF8C0
7FFFC0
71FF80
603E00
ENDCHAR
STARTCHAR 00A4
ENCODING 164
SWIDTH 525 0
DWIDTH 21 0
BBX 15 16 3 5
BITMAP
8002
C006
6FCE
3FFC
7FF8
7C7C
783C
F83C
F03C
783C
783C
7C78
3FF8
7FFC
C7CE
8002
ENDCHAR
STARTCHAR 00A5
ENCODING 165
SWIDTH 525 0
DWIDTH 21 0
BBX 22 27 0 -1
BITMAP
FF83FC
FE01F8
3E00F0
3E00E0
1E01C0
1F0180
0F0180
0F8300
078300
07C600
1FC7E0
01EC00
01E800
01F800
00F000
1FFFE0
00F000
00F000
00F000
00F000
00F000
007000
007000
007000
00F000
03F800
03FF80
ENDCHAR
STARTCHAR 00A6
ENCODING 166
SWIDTH 475 0
DWIDTH 19 0
BBX 3 31 8 -6
BITMAP
E0
E0
E0
E0
E0
E0
E0
E0
E0
E0
E0
E0
E0
00
00
00
00
00
00
E0
E0
E0
E0
E0
E0
E0
E0
E0
E0
E0
E0
ENDCHAR
STARTCHAR 00A7
ENCODING 167
SWIDTH 525 0
DWIDTH 21 0
BBX 15 36 3 -10
BITMAP
01F0
07FC
1FFC
383C
3018
7000
7000
7000
7800
7C00
7E00
3F80
1FE0
3FF0
71F8
F0FC
F03E
F01E
F80E
FC0E
7E0C
7F88
3FD0
0FE0
07F0
01F8
00FC
007C
003C
003C
0038
0078
70F0
FFE0
FFC0
3F00
ENDCHAR
STARTCHAR 00A8
ENCODING 168
SWIDTH 500 0
DWIDTH 20 0
BBX 11 4 4 20
BITMAP
70E0
F1E0
F1E0
70E0
ENDCHAR
STARTCHAR 00A9
ENCODING 169
SWIDTH 750 0
DWIDTH 30 0
BBX 27 27 2 -1
BITMAP
003F8000
01C0E000
07001800
0C000C00
18000600
30000300
303FE180
60F06180
61C020C0
C3C020C0
C78000C0
C7800060
C7800060
C7800060
C7800060
C7800060
C78000C0
C3C020C0
63C060C0
60F0E180
303FC180
30000300
18000600
0C000C00
07001800
01C07000
007F8000
ENDCHAR
STARTCHAR 00AA
ENCODING 170
SWIDTH 325 0
DWIDTH 13 0
BBX 12 11 1 10
BITMAP
1F00
2380
E380
E380
0380
3F80
FB80
F380
F380
FFF0
79E0
ENDCHAR
STARTCHAR 00AB
ENCODING 171
SWIDTH 525 0
DWIDTH 21 0
BBX 17 15 2 1
BITMAP
018180
030180
070300
0E0600
1C0E00
383C00
F07800
F07800
703800
381C00
1C0E00
0E0600
070300
030180
018080
ENDCHAR
STARTCHAR 00AC
ENCODING 172
SWIDTH 525 0
DWIDTH 21 0
BBX 17 10 2 0
BITMAP
FFFF80
FFFF80
000780
000780
000780
000780
000780
000780
000780
000780
ENDCHAR
STARTCHAR 00AD
ENCODING 173
SWIDTH 300 0
DWIDTH 12 0
BBX 9 3 1 7
BITMAP
FF80
FF80
FF80
ENDCHAR
STARTCHAR 00AE
ENCODING 174
SWIDTH 750 0
DWIDTH 30 0
BBX 27 27 2 -1
BITMAP
003F8000
01C0E000
07001800
0C000C00
18000600
30000300
33FE0180
61E78180
60E780C0
C0E3C0C0
C0E3C0C0
C0E3C060
C0E78060
C0FF0060
C0E70060
C0E70060
C0E380C0
C0E3C0C0
60E1C0C0
61E0E180
33F87980
30000300
18000600
0C000C00
07001800
01C07000
007F8000
ENDCHAR
STARTCHAR 00AF
ENCODING 175
SWIDTH 500 0
DWIDTH 20 0
BBX 12 2 4 21
BITMAP
FFF0
FFF0
ENDCHAR
STARTCHAR 00B0
ENCODING 176
SWIDTH 525 0
DWIDTH 21 0
BBX 11 11 5 15
BITMAP
1F00
7180
60C0
C040
C060
C060
C060
E0E0
71C0
7F80
1F00
ENDCHAR
STARTCHAR 00B1
ENCODING 177
SWIDTH 525 0
DWIDTH 21 0
BBX 16 21 2 0
BITMAP
0180
0180
0180
0180
0180
0180
0180
FFFF
FFFF
0180
0180
0180
0180
0180
0180
0180
0000
0000
0007
FFFF
FFFF
ENDCHAR
STARTCHAR 00B2
ENCODING 178
SWIDTH 350 0
DWIDTH 14 0
BBX 12 16 1 10
BITMAP
0F80
33C0
21E0
41E0
41E0
01E0
03E0
03C0
0780
0700
0E00
1C10
3830
7020
7FE0
FFE0
ENDCHAR
STARTCHAR 00B3
ENCODING 179
SWIDTH 350 0
DWIDTH 14 0
BBX 11 16 1 10
BITMAP
0F80
33C0
23C0
43C0
03C0
0380
0700
1FC0
13E0
01E0
01E0
01E0
41E0
E1C0
6380
3E00
ENDCHAR
STARTCHAR 00B4
ENCODING 180
SWIDTH 500 0
DWIDTH 20 0
BBX 7 6 8 20
BITMAP
0E
1E
3C
70
E0
80
ENDCHAR
STARTCHAR 00B5
ENCODING 181
SWIDTH 600 0
DWIDTH 24 0
BBX 22 28 1 -11
BITMAP
0E0FE0
FE01E0
FC01E0
3C01E0
3C01E0
3C01E0
3C01E0
3C01E0
3C01E0
3C01E0
3C01E0
3C01E0
3E01E0
3E01E0
3F07E0
3FFDFC
3FF1F8
3BC1C0
380000
380000
380000
3C0000
3C0000
3C0000
3C0000
3C0000
3C0000
380000
ENDCHAR
STARTCHAR 00B6
ENCODING 182
SWIDTH 700 0
DWIDTH 28 0
BBX 27 37 3 -10
BITMAP
00001000
000010C0
000010E0
000011C0
01FFFF80
0FF81000
1FF81000
3FF81000
7FF81000
7FF81000
FFF81000
FFF81000
FFF81000
FFF81000
FFF81000
FFF81000
FFF81000
FFF81000
FFF81000
7FF81000
7FF81000
3FF81000
1FF81000
07F81000
01FFF000
00001000
00001000
00001800
00001800
00001800
00003000
00003000
00003000
0007F000
000FF000
000FE000
0007C000
ENDCHAR
STARTCHAR 00B7
ENCODING 183
SWIDTH 250 0
DWIDTH 10 0
BBX 5 5 2 6
BITMAP
70
F8
F8
F8
70
ENDCHAR
STARTCHAR 00B8
ENCODING 184
SWIDTH 500 0
DWIDTH 20 0
BBX 6 9 8 -9
BITMAP
10
20
20
70
78
3C
98
D8
F0
ENDCHAR
STARTCHAR 00B9
ENCODING 185
SWIDTH 350 0
DWIDTH 14 0
BBX 9 16 3 10
BITMAP
0C00
1C00
FC00
BC00
1C00
1C00
1C00
1C00
1C00
1C00
1C00
1C00
1C00
1C00
3C00
FF80
ENDCHAR
STARTCHAR 00BA
ENCODING 186
SWIDTH 350 0
DWIDTH 14 0
BBX 12 11 1 10
BITMAP
0F80
39C0
71E0
F0F0
F0F0
F0F0
F0F0
F0F0
78E0
39C0
1F00
ENDCHAR
STARTCHAR 00BB
ENCODING 187
SWIDTH 525 0
DWIDTH 21 0
BBX 17 15 2 1
BITMAP
808000
C0C000
606000
383800
3C1C00
1E1E00
0F0F00
0F8780
0F0F00
1E1E00
3C3800
383000
706000
C0C000
808000
ENDCHAR
STARTCHAR 00BC
ENCODING 188
SWIDTH 800 0
DWIDTH 32 0
BBX 28 27 3 -1
BITMAP
0C000000
3C003000
FC003000
BC006000
1C006000
1C00C000
1C00C000
1C018000
1C018000
1C030000
1C030380
1C060780
1C060780
1C0C0F80
3C0C1F80
FF983F80
00187780
0030E780
0030C780
00718780
00618780
0061FFF0
00C00780
00C00780
01800780
01800780
03000780
ENDCHAR
STARTCHAR 00BD
ENCODING 189
SWIDTH 800 0
DWIDTH 32 0
BBX 28 27 2 -1
BITMAP
04001800
1C003000
7C003000
DC006000
1C006000
1C00E000
1C00C000
1C00C000
1C018000
1C018000
1C030000
1C030F80
1C0633C0
1C0661E0
1E0C41E0
FF8C01E0
001C01E0
001803E0
003803C0
003007C0
00300780
00600F10
00601E10
00C01C10
00C03830
01807FF0
01807FE0
ENDCHAR
STARTCHAR 00BE
ENCODING 190
SWIDTH 800 0
DWIDTH 32 0
BBX 28 27 3 -1
BITMAP
0F000000
37803800
43C03000
43C06000
07806000
0700C000
0E00C000
3F81C000
63C18000
03E38000
01E301C0
01E703C0
C1C607C0
C3CE0FC0
E38C1FC0
7E1C3BC0
001833C0
003863C0
0030E3C0
0031C3C0
0061C3C0
0061FFF0
00E003C0
00C003C0
00C003C0
018003C0
018003C0
ENDCHAR
STARTCHAR 00BF
ENCODING 191
SWIDTH 400 0
DWIDTH 16 0
BBX 13 26 1 -9
BITMAP
00E0
00F0
01F0
00F0
00E0
0000
0000
0040
0060
0060
00E0
07E0
1FE0
3FC0
7F00
FC00
F800
F000
6000
6000
6000
3000
1830
0FF8
07F8
01F0
ENDCHAR
STARTCHAR 00C0
ENCODING 192
SWIDTH 675 0
DWIDTH 27 0
BBX 27 35 0 -1
BITMAP
01E00000
01F00000
00780000
001E0000
00070000
00018000
00000000
00000000
000E0000
000F0000
000F0000
001F0000
001F8000
00378000
00378000
0033C000
0063C000
0063E000
00C1E000
00C1E000
01C0F000
0180F000
0180F000
03007800
03FFF800
06007C00
06003C00
0E003C00
0C003E00
0C003E00
1C001F00
1C001F00
3C001F80
7C001FC0
FF80FFE0
ENDCHAR
STARTCHAR 00C1
ENCODING 193
SWIDTH 675 0
DWIDTH 27 0
BBX 27 35 0 -1
BITMAP
00007000
0000F800
0001E000
00038000
000E0000
00180000
00000000
00000000
000E0000
000F0000
000F0000
001F0000
001F8000
00378000
00378000
0033C000
0063C000
0063E000
00C1E000
00C1E000
01C0F000
0180F000
0180F000
03007800
03FFF800
06007C00
06003C00
0E003C00
0C003E00
0C003E00
1C001F00
1C001F00
3C001F80
7C001FC0
FF807FE0
ENDCHAR
STARTCHAR 00C2
ENCODING 194
SWIDTH 675 0
DWIDTH 27 0
BBX 27 36 0 -1
BITMAP
00060000
000F0000
001F0000
003B8000
0071C000
00C06000
01803000
00000000
00000000
000E0000
000F0000
000F0000
001F0000
001F8000
00378000
00378000
0033C000
0063C000
0063E000
00C1E000
00C1E000
01C0F000
0180F000
0180F000
03007800
03FFF800
06007C00
06003C00
0E003C00
0C003E00
0C003E00
1C001F00
1C001F00
3C001F80
7C001FC0
FF807FE0
ENDCHAR
STARTCHAR 00C3
ENCODING 195
SWIDTH 675 0
DWIDTH 27 0
BBX 27 34 0 0
BITMAP
00780800
00FF1800
01FFF000
030FF000
0001C000
00000000
00000000
000E0000
000F0000
000F0000
001F0000
001F8000
00378000
00378000
0033C000
0063C000
0063E000
00C1E000
00C1E000
01C0F000
0180F000
0180F000
03007800
03FFF800
06007C00
06003C00
0E003C00
0C003E00
0C003E00
1C001F00
1C001F00
3C001F80
7C001FC0
FF807FE0
ENDCHAR
STARTCHAR 00C4
ENCODING 196
SWIDTH 675 0
DWIDTH 27 0
BBX 27 34 0 -1
BITMAP
00C06000
01E0F000
01E0F000
00C06000
00000000
00000000
00000000
000E0000
000F0000
000F0000
001F0000
001F8000
00378000
00378000
0033C000
0063C000
0063E000
00C1E000
00C1E000
01C0F000
0180F000
0180F000
03007800
03FFF800
06007C00
06003C00
0E003C00
0C003E00
0C003E00
1C001F00
1C001F00
3C001F80
7C001FC0
FF807FE0
ENDCHAR
STARTCHAR 00C5
ENCODING 197
SWIDTH 675 0
DWIDTH 27 0
BBX 27 36 0 -1
BITMAP
001F0000
00318000
0060C000
0060C000
0060C000
00318000
001F0000
00000000
00000000
000E0000
000F0000
000F0000
001F0000
001F8000
00378000
00378000
0033C000
0063C000
0063E000
00C1E000
00C1E000
01C0F000
0180F000
0180F000
03007800
03FFF800
06007C00
06003C00
0E003C00
0C003E00
0C003E00
1C001F00
1C001F00
3C001F80
7C001FC0
FF807FE0
ENDCHAR
STARTCHAR 00C6
ENCODING 198
SWIDTH 950 0
DWIDTH 38 0
BBX 37 27 0 -1
BITMAP
0001C00FF8
0001FFF070
00007E0030
00007E0010
0000DE0010
00009E0010
00019E0000
00031E0000
00031E0000
00061E0040
000C1E0040
000C1E00C0
00181FFFC0
00301FFFC0
00301E00C0
007FFE0040
00C01E0040
01C01E0000
01801E0000
03001E0008
07001E0008
06001E0018
0E001E0018
1C001E0038
3E003F00F8
7F807FFFF0
F080F803F0
ENDCHAR
STARTCHAR 00C7
ENCODING 199
SWIDTH 675 0
DWIDTH 27 0
BBX 24 36 2 -10
BITMAP
003FF3
01E03E
03000E
0E000E
1C0006
3C0006
380006
780006
700000
700000
F00000
F00000
F00000
F00000
F00000
F00000
F00000
F80000
780000
780000
7C0002
3E0006
3F0006
1F800E
0FE03C
03FFFC
00FF00
000200
000400
000F00
000F80
000F80
000380
003100
003900
001E00
ENDCHAR
STARTCHAR 00C8
ENCODING 200
SWIDTH 600 0
DWIDTH 24 0
BBX 22 35 1 -1
BITMAP
078000
07C000
03E000
00F000
003800
000C00
000000
000000
7003F8
7FFC78
1E0018
1E0018
1E0010
1E0010
1E0000
1E0000
1E0000
1E0040
1E0040
1E00C0
1FFFC0
1FFFC0
1E00C0
1E0040
1E0040
1E0000
1E0000
1E000C
1E000C
1E0018
1E0038
1F0078
1FFFF8
1FFFF8
F803F0
ENDCHAR
STARTCHAR 00C9
ENCODING 201
SWIDTH 600 0
DWIDTH 24 0
BBX 22 35 1 -1
BITMAP
0003C0
0007C0
000F80
001E00
003800
006000
000000
000000
7003F8
7FFC78
1E0018
1E0018
1E0010
1E0010
1E0000
1E0000
1E0000
1E0040
1E0040
1E00C0
1FFFC0
1FFFC0
1E00C0
1E0040
1E0040
1E0000
1E0000
1E000C
1E000C
1E0018
1E0038
1F0078
1FFFF8
1FFFF8
F803F0
ENDCHAR
STARTCHAR 00CA
ENCODING 202
SWIDTH 600 0
DWIDTH 24 0
BBX 22 36 1 -1
BITMAP
003000
007800
007C00
00EE00
01C700
030380
0600C0
000000
000000
7003F8
7FFC78
1E0018
1E0018
1E0010
1E0010
1E0000
1E0000
1E0000
1E0040
1E0040
1E00C0
1FFFC0
1FFFC0
1E00C0
1E0040
1E0040
1E0000
1E0000
1E000C
1E000C
1E0018
1E0038
1F0078
1FFFF8
1FFFF8
F803F0
ENDCHAR
STARTCHAR 00CB
ENCODING 203
SWIDTH 600 0
DWIDTH 24 0
BBX 22 34 1 -1
BITMAP
070380
0F0780
070380
070380
000000
000000
000000
7003F8
7FFC78
1E0018
1E0018
1E0010
1E0010
1E0000
1E0000
1E0000
1E0040
1E0040
1E00C0
1FFFC0
1FFFC0
1E00C0
1E0040
1E0040
1E0000
1E0000
1E000C
1E000C
1E0018
1E0038
1F0078
1FFFF8
1FFFF8
F803F0
ENDCHAR
STARTCHAR 00CC
ENCODING 204
SWIDTH 350 0
DWIDTH 14 0
BBX 12 35 1 -1
BITMAP
7000
F800
3C00
0E00
0300
00C0
0000
0000
FFF0
1F80
1F00
0F00
0F00
0F00
0F00
0F00
0F00
0F00
0F00
0F00
0F00
0F00
0F00
0F00
0F00
0F00
0F00
0F00
0F00
0F00
0F00
1F00
1F00
3F80
FFF0
ENDCHAR
STARTCHAR 00CD
ENCODING 205
SWIDTH 350 0
DWIDTH 14 0
BBX 12 35 1 -1
BITMAP
00F0
01F0
03E0
0700
0E00
1800
0000
0000
FFF0
1F80
1F80
0F00
0F00
0F00
0F00
0F00
0F00
0F00
0F00
0F00
0F00
0F00
0F00
0F00
0F00
0F00
0F00
0F00
0F00
0F00
0F00
1F00
1F00
3F80
FFF0
ENDCHAR
STARTCHAR 00CE
ENCODING 206
SWIDTH 350 0
DWIDTH 14 0
BBX 13 36 1 -1
BITMAP
0600
0F00
1F80
3DC0
78E0
F070
C010
0000
0000
7FF8
0F80
0F80
0F00
0F00
0F00
0F00
0F00
0F00
0F00
0F00
0F00
0F00
0F00
0F00
0F00
0F00
0F00
0F00
0F00
0F00
0F00
0F00
0F80
0F80
1F80
7FF8
ENDCHAR
STARTCHAR 00CF
ENCODING 207
SWIDTH 350 0
DWIDTH 14 0
BBX 12 34 1 -1
BITMAP
6060
F0F0
F0F0
6060
0000
0000
0000
FFF0
1F80
1F00
0F00
0F00
0F00
0F00
0F00
0F00
0F00
0F00
0F00
0F00
0F00
0F00
0F00
0F00
0F00
0F00
0F00
0F00
0F00
0F00
1F00
1F00
3F80
FFF0
ENDCHAR
STARTCHAR 00D0
ENCODING 208
SWIDTH 775 0
DWIDTH 31 0
BBX 28 27 1 -1
BITMAP
7FFFC000
0F807800
0F801E00
0F800700
0F000380
0F0003C0
0F0001E0
0F0001E0
0F0000F0
0F0000F0
0F0000F0
0F0000F0
FFFF00F0
0FF800F0
0F0000F0
0F0000F0
0F0000F0
0F0000F0
0F0000E0
0F0001E0
0F0001C0
0F0003C0
0F000780
0F800F00
0F801E00
7FC07800
F07FC000
ENDCHAR
STARTCHAR 00D1
ENCODING 209
SWIDTH 775 0
DWIDTH 31 0
BBX 30 34 1 0
BITMAP
001C0600
007F8C00
00FFFC00
0087F800
0000F000
00000000
00000000
C6000C1C
7F000FFC
1F8003E0
1FC001C0
1FC001C0
0FE001C0
0FF001C0
0DF801C0
0CFC00C0
0CFE00C0
1C7F00C0
1C3F80C0
1C1FC0C0
1C0FE0C0
1C07F0C0
1C03F0C0
1C01F8C0
1C00FCC0
1C007EC0
1C003FC0
3C001FC0
3C000FC0
3C0007C0
3C0007C0
3C0003C0
FE0001C0
81C000C0
ENDCHAR
STARTCHAR 00D2
ENCODING 210
SWIDTH 800 0
DWIDTH 32 0
BBX 28 35 2 -1
BITMAP
00700000
00F80000
007C0000
001E0000
00070000
00018000
00000000
00000000
003FC000
01C0F800
03003E00
0E000F00
1C000780
3C0007C0
380003C0
780001E0
700001E0
F00001E0
F00000F0
F00000F0
F00000F0
F00000F0
F00000F0
F00000F0
F00000F0
F80000E0
780000E0
780001E0
3C0001C0
3C000380
1E000380
0F000700
07800C00
01E03800
007FC000
ENDCHAR
STARTCHAR 00D3
ENCODING 211
SWIDTH 800 0
DWIDTH 32 0
BBX 28 35 2 -1
BITMAP
0000F000
0001F000
0003E000
00078000
000E0000
00180000
00000000
00000000
003FC000
01C0F800
03003E00
0E000F00
1C000780
3C0007C0
380003C0
780001E0
700001E0
F00001E0
F00000F0
F00000F0
F00000F0
F00000F0
F00000F0
F00000F0
F00000F0
F80000E0
780000E0
780001E0
3C0001C0
3C000380
1E000380
0F000700
07800C00
01E03800
007FC000
ENDCHAR
STARTCHAR 00D4
ENCODING 212
SWIDTH 800 0
DWIDTH 32 0
BBX 28 36 2 -1
BITMAP
00060000
000F0000
001F8000
003FC000
0070E000
00E07000
01801000
00000000
00000000
003FC000
01C0F800
03003E00
0E000F00
1C000780
3C0007C0
380003C0
780001E0
700001E0
F00001E0
F00000F0
F00000F0
F00000F0
F00000F0
F00000F0
F00000F0
F00000F0
F80000E0
780000E0
780001E0
3C0001C0
3C000380
1E000380
0F000700
07800C00
01E03800
007FC000
ENDCHAR
STARTCHAR 00D5
ENCODING 213
SWIDTH 800 0
DWIDTH 32 0
BBX 28 34 2 0
BITMAP
00780800
00FF1800
01FFF000
030FF000
0003C000
00000000
00000000
003FC000
01C0F800
03003E00
0E000F00
1C000780
3C0007C0
380003C0
780001E0
700001E0
F00001E0
F00000F0
F00000F0
F00000F0
F00000F0
F00000F0
F00000F0
F00000F0
F80000E0
780000E0
780001E0
3C0001C0
3C000380
1E000380
0F000700
07800C00
01E03800
007FC000
ENDCHAR
STARTCHAR 00D6
ENCODING 214
SWIDTH 800 0
DWIDTH 32 0
BBX 28 34 2 -1
BITMAP
00606000
00F0F000
00F0F000
00606000
00000000
00000000
00000000
003FC000
01C0F800
03003E00
0E000F00
1C000780
3C0007C0
380003C0
780001E0
700001E0
F00001E0
F00000F0
F00000F0
F00000F0
F00000F0
F00000F0
F00000F0
F00000F0
F80000E0
780000E0
780001E0
3C0001C0
3C000380
1E000380
0F000700
07800C00
01E03800
007FC000
ENDCHAR
STARTCHAR 00D7
ENCODING 215
SWIDTH 525 0
DWIDTH 21 0
BBX 15 15 3 5
BITMAP
4004
E00E
701C
3838
1C70
0EE0
07C0
0380
07C0
0EE0
1C70
3838
701C
E00E
4004
ENDCHAR
STARTCHAR 00D8
ENCODING 216
SWIDTH 800 0
DWIDTH 32 0
BBX 28 29 2 -2
BITMAP
000000E0
003FC1C0
01C0FB80
03003F00
0E001F00
1C000F80
38001FC0
38003FC0
780033E0
700061E0
F000E1E0
F001C1F0
F00380F0
F00300F0
F00600F0
F00E00F0
F01C00F0
F83800F0
F83000E0
786000E0
7CE001E0
3FC001C0
1F800180
1F800380
0F800700
0FE00C00
1DF03800
383FC000
70000000
ENDCHAR
STARTCHAR 00D9
ENCODING 217
SWIDTH 725 0
DWIDTH 29 0
BBX 28 35 1 -1
BITMAP
00E00000
01F00000
00780000
001E0000
00070000
00018000
00000000
00000000
E0F03070
FFC03FC0
3E000F80
3E000780
1E000300
1E000300
1E000300
1E000300
1E000300
1E000300
1E000300
1E000300
1E000300
1E000300
1E000300
1E000300
1E000300
1E000300
1E000300
1E000300
1E000700
1F000600
1F800E00
0FE03C00
07FFF800
03FFF000
007F8000
ENDCHAR
STARTCHAR 00DA
ENCODING 218
SWIDTH 725 0
DWIDTH 29 0
BBX 28 35 1 -1
BITMAP
00007000
0000F800
0001E000
00038000
00060000
00180000
00000000
00000000
E0F03070
FFC03FC0
3E000F80
3E000780
1E000300
1E000300
1E000300
1E000300
1E000300
1E000300
1E000300
1E000300
1E000300
1E000300
1E000300
1E000300
1E000300
1E000300
1E000300
1E000300
1E000700
1F000600
1F800E00
0FE03C00
07FFF800
03FFF000
007F8000
ENDCHAR
STARTCHAR 00DB
ENCODING 219
SWIDTH 725 0
DWIDTH 29 0
BBX 28 36 1 -1
BITMAP
00060000
000F0000
001F8000
003FC000
0070E000
00E07000
01803000
00000000
00000000
E0F03070
FFC03FC0
3E000F80
3E000780
1E000300
1E000300
1E000300
1E000300
1E000300
1E000300
1E000300
1E000300
1E000300
1E000300
1E000300
1E000300
1E000300
1E000300
1E000300
1E000300
1E000700
1F000600
1F800E00
0FE03C00
07FFF800
03FFF000
007F8000
ENDCHAR
STARTCHAR 00DC
ENCODING 220
SWIDTH 725 0
DWIDTH 29 0
BBX 28 34 1 -1
BITMAP
00E07000
00F07800
00F07800
00E07000
00000000
00000000
00000000
E0F03070
FFC03FC0
3E000F80
3E000780
1E000300
1E000300
1E000300
1E000300
1E000300
1E000300
1E000300
1E000300
1E000300
1E000300
1E000300
1E000300
1E000300
1E000300
1E000300
1E000300
1E000700
1F000600
1F800E00
0FE03C00
07FFF800
03FFF000
007F8000
ENDCHAR
STARTCHAR 00DD
ENCODING 221
SWIDTH 600 0
DWIDTH 24 0
BBX 25 35 0 -1
BITMAP
0000E000
0001F000
0003C000
000F0000
001C0000
00300000
00000000
00000000
FFC0FF80
FF003F00
3E001E00
3F001C00
1F003800
0F803000
0F806000
07C06000
03C0C000
03E18000
01F18000
01F30000
00FA0000
007E0000
007C0000
007C0000
003C0000
003C0000
003C0000
003C0000
003C0000
003C0000
003C0000
003C0000
007C0000
01FE0000
03FFC000
ENDCHAR
STARTCHAR 00DE
ENCODING 222
SWIDTH 575 0
DWIDTH 23 0
BBX 21 27 1 -1
BITMAP
FF9000
1FF000
0F8000
0F0000
0F0000
0FFF00
0F03C0
0F01E0
0F00F0
0F0078
0F0078
0F0078
0F0078
0F0078
0F0078
0F00F0
0F00F0
0F01E0
0F0780
0FFE00
0F0000
0F0000
0F0000
0F0000
1F0000
3F8000
FFF000
ENDCHAR
STARTCHAR 00DF
ENCODING 223
SWIDTH 600 0
DWIDTH 24 0
BBX 21 29 1 -1
BITMAP
003F00
00FFC0
01FFE0
0383E0
0701E0
0E01E0
0E01E0
0E01E0
1E01C0
1E0380
1E0700
3E0E00
FE1C00
1E3800
1E7800
1E7C00
1E7E00
1E3F80
1E3FC0
1E1FE0
1E07F0
1E03F8
1E00F8
1E0078
1E0078
1E1078
1E3870
3F3C60
FF9F80
ENDCHAR
STARTCHAR 00E0
ENCODING 224
SWIDTH 475 0
DWIDTH 19 0
BBX 18 27 2 -1
BITMAP
3C0000
3E0000
1E0000
070000
038000
00C000
000000
000000
000000
03F000
0FF800
3FF800
787C00
787C00
003C00
003C00
003C00
003C00
03FC00
3C7C00
F03C00
F03800
F07800
F07CC0
FFFFC0
FFBF00
7C3C00
ENDCHAR
STARTCHAR 00E1
ENCODING 225
SWIDTH 475 0
DWIDTH 19 0
BBX 18 27 2 -1
BITMAP
007800
007800
00F000
01C000
038000
030000
000000
000000
000000
03F000
0FF800
3FF800
787C00
787C00
003C00
003C00
003C00
003C00
03FC00
3C7C00
F03C00
F03800
F07800
F07CC0
FFFFC0
FFBF00
7C3C00
ENDCHAR
STARTCHAR 00E2
ENCODING 226
SWIDTH 475 0
DWIDTH 19 0
BBX 18 27 2 -1
BITMAP
010000
038000
07C000
0FC000
0C6000
183000
201000
000000
000000
03F000
0FF800
3FF800
787C00
787C00
003C00
003C00
003C00
003C00
03FC00
3C7C00
F03C00
F03800
F07800
F07CC0
FFFFC0
FFBF00
7C3C00
ENDCHAR
STARTCHAR 00E3
ENCODING 227
SWIDTH 475 0
DWIDTH 19 0
BBX 18 26 2 -1
BITMAP
0E0400
1F8C00
3FF800
63F000
00E000
000000
000000
000000
03F000
0FF800
3FF800
787C00
787C00
003C00
003C00
003C00
003C00
03FC00
3C7C00
F03C00
F03800
F07800
F07CC0
FFFFC0
FFBF00
7C3C00
ENDCHAR
STARTCHAR 00E4
ENCODING 228
SWIDTH 475 0
DWIDTH 19 0
BBX 18 25 2 -1
BITMAP
383800
3C3C00
3C3C00
383800
000000
000000
000000
03F000
0FF800
3FF800
787C00
787C00
003C00
003C00
003C00
003C00
03FC00
3C7C00
F03C00
F03800
F07800
F07CC0
FFFFC0
FFBF00
7C3C00
ENDCHAR
STARTCHAR 00E5
ENCODING 229
SWIDTH 475 0
DWIDTH 19 0
BBX 18 27 2 -1
BITMAP
03C000
0C6000
0C6000
0C3000
0C6000
0C6000
03C000
000000
000000
03F000
0FF800
3FF800
787C00
787C00
003C00
003C00
003C00
003C00
03FC00
3C7C00
F03C00
F03800
F07800
F07CC0
FFFFC0
FFBF00
7C3C00
ENDCHAR
STARTCHAR 00E6
ENCODING 230
SWIDTH 675 0
DWIDTH 27 0
BBX 25 18 2 -1
BITMAP
07E1F000
1FFE1C00
307C0E00
707C0E00
F03C0700
00380F00
00387F80
003FFC00
01FF8000
1FFC0000
7C7C0000
F03C0000
F03C0000
F03E0100
F03F0700
F05FFE00
FF8FFC00
7C03E000
ENDCHAR
STARTCHAR 00E7
ENCODING 231
SWIDTH 450 0
DWIDTH 18 0
BBX 15 26 2 -9
BITMAP
01F8
0FFC
1FFE
3C1C
7800
7000
F000
F000
F000
F000
F000
F000
F800
F804
7E0C
7FF8
3FE0
0F80
0080
0180
03C0
03E0
01E0
04C0
0EC0
0700
ENDCHAR
STARTCHAR 00E8
ENCODING 232
SWIDTH 450 0
DWIDTH 18 0
BBX 15 27 2 -1
BITMAP
3800
7C00
1E00
0E00
0700
0180
0000
0000
0000
07C0
1C70
3838
703C
701C
F03E
F1FE
FFE0
F800
F000
F000
F000
F800
F804
7E0C
7FF8
3FF0
0FC0
ENDCHAR
STARTCHAR 00E9
ENCODING 233
SWIDTH 450 0
DWIDTH 18 0
BBX 15 27 2 -1
BITMAP
0070
00F0
01E0
03C0
0300
0600
0000
0000
0000
07C0
1C70
3838
703C
701C
F03E
F1FE
FFE0
F800
F000
F000
F000
F800
F804
7E0C
7FF8
3FF0
0FC0
ENDCHAR
STARTCHAR 00EA
ENCODING 234
SWIDTH 450 0
DWIDTH 18 0
BBX 15 27 2 -1
BITMAP
0100
0380
07C0
0FC0
1C60
1830
2010
0000
0000
07C0
1C70
3838
703C
701C
F03E
F1FE
FFE0
F800
F000
F000
F000
F800
F804
7E0C
7FF8
3FF0
0FC0
ENDCHAR
STARTCHAR 00EB
ENCODING 235
SWIDTH 450 0
DWIDTH 18 0
BBX 15 25 2 -1
BITMAP
3870
3C78
3C78
3870
0000
0000
0000
07C0
1C70
3838
703C
701C
F03E
F1FE
FFE0
F800
F000
F000
F000
F800
F804
7E0C
7FF8
3FF0
0FC0
ENDCHAR
STARTCHAR 00EC
ENCODING 236
SWIDTH 300 0
DWIDTH 12 0
BBX 11 27 0 -1
BITMAP
7000
F800
3C00
1C00
0600
0300
0000
0000
0000
0300
1F00
7F00
3F00
0F00
0F00
0F00
0F00
0F00
0F00
0F00
0F00
0F00
0F00
0F00
1F00
7FC0
7820
ENDCHAR
STARTCHAR 00ED
ENCODING 237
SWIDTH 300 0
DWIDTH 12 0
BBX 10 27 1 -1
BITMAP
01C0
03C0
0780
0F00
0C00
1800
0000
0000
0000
0600
3E00
FE00
7E00
1E00
1E00
1E00
1E00
1E00
1E00
1E00
1E00
1E00
1E00
1E00
3E00
FF00
E0C0
ENDCHAR
STARTCHAR 00EE
ENCODING 238
SWIDTH 300 0
DWIDTH 12 0
BBX 11 27 1 -1
BITMAP
0800
1C00
3E00
3E00
6300
C180
8080
0000
0000
0600
3E00
FE00
7E00
3E00
3E00
1E00
1E00
1E00
1E00
1E00
1E00
3E00
3E00
3E00
3E00
7F00
70E0
ENDCHAR
STARTCHAR 00EF
ENCODING 239
SWIDTH 300 0
DWIDTH 12 0
BBX 11 25 0 -1
BITMAP
60C0
F1E0
F1E0
60C0
0000
0000
0000
0300
1F00
7F00
1F00
0F00
0F00
0F00
0F00
0F00
0F00
0F00
0F00
0F00
0F00
0F00
1F00
7FC0
7820
ENDCHAR
STARTCHAR 00F0
ENCODING 240
SWIDTH 550 0
DWIDTH 22 0
BBX 19 30 2 -1
BITMAP
0C0000
060800
031C00
01B800
01F000
01E000
03F000
077800
0C3800
001C00
001E00
000F00
03E700
0C3F80
380F80
3807C0
7007C0
F003C0
F003C0
F003E0
F001E0
F001E0
F001E0
F001C0
F003C0
780380
780380
3C0700
1F0C00
07F000
ENDCHAR
STARTCHAR 00F1
ENCODING 241
SWIDTH 600 0
DWIDTH 24 0
BBX 22 26 1 -1
BITMAP
00E080
03F180
03FF80
063F00
000E00
000000
000000
000000
060F80
1E7FC0
FFFFE0
FF83E0
1E01E0
1E01E0
1E01E0
1E01E0
1E01E0
1E01E0
1E01E0
1E01E0
1E01E0
1E01E0
1E01E0
1E01E0
3F07F0
FFCFFC
ENDCHAR
STARTCHAR 00F2
ENCODING 242
SWIDTH 550 0
DWIDTH 22 0
BBX 19 27 2 -1
BITMAP
0E0000
0F0000
078000
03C000
00C000
006000
000000
000000
000000
03F800
0C3E00
380F00
380780
7007C0
F003C0
F003C0
F003E0
F001E0
F001E0
F001C0
F001C0
F003C0
780380
780380
3C0700
1F0C00
07F000
ENDCHAR
STARTCHAR 00F3
ENCODING 243
SWIDTH 550 0
DWIDTH 22 0
BBX 19 27 2 -1
BITMAP
001C00
003E00
007800
007000
00C000
018000
000000
000000
000000
03F800
0C3E00
380F00
380780
7007C0
F003C0
F003C0
F003E0
F001E0
F001E0
F001C0
F001C0
F003C0
780380
780380
3C0700
1F0C00
07F000
ENDCHAR
STARTCHAR 00F4
ENCODING 244
SWIDTH 550 0
DWIDTH 22 0
BBX 19 27 2 -1
BITMAP
00C000
01E000
01E000
03F000
073800
0C0C00
080400
000000
000000
03F800
0E1E00
380F00
380780
7007C0
F003C0
F003C0
F003E0
F001E0
F001E0
F001C0
F001C0
F803C0
780380
7C0380
3E0700
1F0C00
07F000
ENDCHAR
STARTCHAR 00F5
ENCODING 245
SWIDTH 550 0
DWIDTH 22 0
BBX 19 26 2 -1
BITMAP
078200
0FC600
0FFE00
18FC00
103800
000000
000000
000000
03F800
0C3E00
380F00
380780
7007C0
F003C0
F003C0
F003E0
F001E0
F001E0
F001C0
F001C0
F003C0
780380
780380
3C0700
1F0C00
07F000
ENDCHAR
STARTCHAR 00F6
ENCODING 246
SWIDTH 550 0
DWIDTH 22 0
BBX 19 25 2 -1
BITMAP
0E1C00
0F1E00
0F1E00
0E1C00
000000
000000
000000
03F800
0C3E00
380F00
380780
7007C0
F003C0
F003C0
F003E0
F001E0
F001E0
F001C0
F001C0
F003C0
780380
780380
3C0700
1F0C00
07F000
ENDCHAR
STARTCHAR 00F7
ENCODING 247
SWIDTH 525 0
DWIDTH 21 0
BBX 16 16 2 5
BITMAP
0180
03C0
03C0
0180
0000
0000
0000
0000
FFFF
FFFF
0000
0000
0180
03C0
03C0
0180
ENDCHAR
STARTCHAR 00F8
ENCODING 248
SWIDTH 550 0
DWIDTH 22 0
BBX 19 20 2 -2
BITMAP
0000C0
03F980
0C3F00
380F00
700F80
701F80
F01BC0
F033C0
F073E0
F0E3E0
F0C1E0
F181E0
F301C0
FF03C0
7E0380
3E0380
1E0700
3F0C00
63F000
C00000
ENDCHAR
STARTCHAR 00F9
ENCODING 249
SWIDTH 600 0
DWIDTH 24 0
BBX 22 27 1 -1
BITMAP
038000
07C000
01E000
00E000
007000
001800
000000
000000
000000
0E0FE0
FE01E0
FC01E0
3C01E0
3C01E0
3C01E0
3C01E0
3C01E0
3C01E0
3C01E0
3C01E0
3C01E0
3E01E0
3E01E0
3F07E0
1FFDFC
1FF1F8
07C1C0
ENDCHAR
STARTCHAR 00FA
ENCODING 250
SWIDTH 600 0
DWIDTH 24 0
BBX 22 27 1 -1
BITMAP
000700
000F00
001E00
003C00
003000
006000
000000
000000
000000
0E0FE0
FE01E0
FC01E0
3C01E0
3C01E0
3C01E0
3C01E0
3C01E0
3C01E0
3C01E0
3C01E0
3C01E0
3E01E0
3E01E0
3F07E0
1FFDFC
1FF1F8
07C1C0
ENDCHAR
STARTCHAR 00FB
ENCODING 251
SWIDTH 600 0
DWIDTH 24 0
BBX 22 27 1 -1
BITMAP
003000
007000
00F800
00FC00
018C00
030600
020300
000000
000000
0E0FE0
FE01E0
FC01E0
3C01E0
3C01E0
3C01E0
3C01E0
3C01E0
3C01E0
3C01E0
3C01E0
3C01E0
3E01E0
3E01E0
3F07E0
1FFDFC
1FF1F8
07C1C0
ENDCHAR
STARTCHAR 00FC
ENCODING 252
SWIDTH 600 0
DWIDTH 24 0
BBX 22 25 1 -1
BITMAP
030600
078F00
078F00
030600
000000
000000
000000
0E0FE0
FE01E0
FC01E0
3C01E0
3C01E0
3C01E0
3C01E0
3C01E0
3C01E0
3C01E0
3C01E0
3C01E0
3E01E0
3E01E0
3F07E0
1FFDFC
1FF1F8
07C1C0
ENDCHAR
STARTCHAR 00FD
ENCODING 253
SWIDTH 450 0
DWIDTH 18 0
BBX 19 37 0 -11
BITMAP
001C00
003C00
007800
00F000
00C000
018000
000000
000000
000000
FF0FE0
7E03C0
3C0380
3C0300
3E0300
1E0600
1E0600
0F0C00
0F0C00
0F1800
079800
079000
03B000
03E000
03E000
01C000
01C000
018000
018000
010000
030000
060000
060000
0C0000
1C0000
380000
780000
700000
ENDCHAR
STARTCHAR 00FE
ENCODING 254
SWIDTH 575 0
DWIDTH 23 0
BBX 20 39 1 -11
BITMAP
0E0000
7E0000
FE0000
3E0000
1E0000
1E0000
1E0000
1E0000
1E0000
1E0000
1E0000
1E3F00
1FFF80
1F0FC0
1E03E0
1E01E0
1E01F0
1E01F0
1E00F0
1E00F0
1E00F0
1E00F0
1E00F0
1E00E0
1E01E0
1E01C0
1F8380
1FFF00
1EFC00
1E0000
1E0000
1E0000
1E0000
1E0000
1E0000
1E0000
1E0000
7F0000
FFC000
ENDCHAR
STARTCHAR 00FF
ENCODING 255
SWIDTH 450 0
DWIDTH 18 0
BBX 19 35 0 -11
BITMAP
060C00
0F1E00
0F1E00
060C00
000000
000000
000000
FF0FE0
7E03C0
3C0380
3C0300
3E0300
1E0600
1E0600
0F0C00
0F0C00
0F1800
079800
079000
03B000
03E000
03E000
01C000
01C000
018000
018000
010000
030000
060000
060000
0C0000
1C0000
380000
780000
700000
ENDCHAR
STARTCHAR 0131
ENCODING 305
SWIDTH 300 0
DWIDTH 12 0
BBX 10 18 1 -1
BITMAP
0600
3E00
FE00
7E00
1E00
1E00
1E00
1E00
1E00
1E00
1E00
1E00
1E00
1E00
1E00
3E00
FF00
E0C0
ENDCHAR
STARTCHAR 0141
ENCODING 321
SWIDTH 550 0
DWIDTH 22 0
BBX 21 27 1 -1
BITMAP
607000
7FC000
1F8000
0F0000
0F0000
0F0000
0F0200
0F0600
0F0E00
0F3C00
0F7000
0FE000
0F8000
0F0000
3F0000
7F0000
EF0000
8F0000
0F0000
0F0008
0F0008
0F0018
0F0018
0F0038
1F00F0
3FFFF0
FC0030
ENDCHAR
STARTCHAR 0142
ENCODING 322
SWIDTH 300 0
DWIDTH 12 0
BBX 11 29 1 -1
BITMAP
0E00
7E00
FE00
3E00
3E00
1E00
1E00
1E00
1E00
1E40
1EC0
1F80
1F00
1E00
3E00
FE00
DE00
1E00
1E00
1E00
1E00
1E00
1E00
1E00
1E00
1E00
3E00
7F00
FFE0
ENDCHAR
STARTCHAR 0152
ENCODING 338
SWIDTH 1025 0
DWIDTH 41 0
BBX 38 27 2 -1
BITMAP
001FF00FFC
01E03FF03C
03001F8018
0E000F8008
1C000F0008
3C000F0008
38000F0000
78000F0000
70000F0000
F0000F0020
F0000F0020
F0000F0060
F0000FFFE0
F0000FFFE0
F0000F0060
F0000F0020
F0000F0020
F0000F0000
78000F0000
78000F0004
3C000F0004
3C000F000C
1E000F000C
0F000F801C
07800F807C
01F03FFFF8
003FC000F8
ENDCHAR
STARTCHAR 0153
ENCODING 339
SWIDTH 825 0
DWIDTH 33 0
BBX 30 18 2 -1
BITMAP
03F81F80
0C1E31E0
380F60F0
7807E070
7007E078
F003C07C
F003C7FC
F003FFC0
F003F000
F003E000
F003E000
F003E000
F003E000
7803F008
7807F838
3C06FFF0
1F0C7FE0
07F01F00
ENDCHAR
STARTCHAR 0160
ENCODING 352
SWIDTH 550 0
DWIDTH 22 0
BBX 19 36 2 -1
BITMAP
100200
1C0E00
0F1C00
07F800
03F000
01E000
00C000
000000
000000
03FC80
0E0F80
1C0780
380380
780180
780180
780180
780000
7C0000
7F0000
7FC000
3FF000
1FFC00
0FFE00
03FF80
007FC0
001FC0
000FC0
0003E0
8003E0
C001E0
C001C0
C003C0
E00380
F00780
FC0E00
87F800
ENDCHAR
STARTCHAR 0161
ENCODING 353
SWIDTH 400 0
DWIDTH 16 0
BBX 13 28 2 -1
BITMAP
4020
6060
38C0
1D80
0F80
0F00
0600
0000
0000
0000
0FF0
3C70
3830
7818
7800
7C00
7E00
7F80
3FE0
1FF0
07F0
01F8
80F8
8078
C070
E070
F0E0
1F80
ENDCHAR
STARTCHAR 0178
ENCODING 376
SWIDTH 600 0
DWIDTH 24 0
BBX 25 34 0 -1
BITMAP
0180C000
03C1E000
03C1E000
0180C000
00000000
00000000
00000000
FFC0FF80
FF003F00
3E001E00
3F001C00
1F003800
0F803000
0F806000
07C06000
03C0C000
03E18000
01F18000
01F30000
00FA0000
007E0000
007C0000
007C0000
003C0000
003C0000
003C0000
003C0000
003C0000
003C0000
003C0000
003C0000
007C0000
01FE0000
03FFC000
ENDCHAR
STARTCHAR 017D
ENCODING 381
SWIDTH 625 0
DWIDTH 25 0
BBX 23 36 1 -1
BITMAP
030060
0180C0
00E380
007F00
003E00
001C00
000800
000000
000000
1F0FFE
3FFFFE
3FFFFC
3800F8
3000F0
3001F0
6003E0
2003C0
000780
000F80
001F00
001E00
003C00
007C00
007800
00F000
01F000
03E000
03C000
078006
0F8006
1F0006
1E000E
3E003C
7FFFFC
FFFFFC
C0000C
ENDCHAR
STARTCHAR 017E
ENCODING 382
SWIDTH 450 0
DWIDTH 18 0
BBX 16 28 1 -1
BITMAP
0804
0C18
0638
0370
03E0
01E0
00C0
0000
0000
0000
3FFF
7FFF
703E
603C
4078
40F0
00F0
01E0
03C0
0780
0780
0F01
1E03
3C03
3C07
78FE
FFFE
F002
ENDCHAR
STARTCHAR 0192
ENCODING 402
SWIDTH 525 0
DWIDTH 21 0
BBX 23 33 -1 -7
BITMAP
000078
0001FE
00071E
000E0C
000E00
001C00
003C00
003C00
003800
007800
007800
007800
01FF80
00F800
00F800
00F000
00F000
00F000
00F000
01F000
01F000
01E000
01E000
01E000
01E000
03C000
03C000
03C000
038000
030000
470000
E60000
780000
ENDCHAR
STARTCHAR 02C6
ENCODING 710
SWIDTH 500 0
DWIDTH 20 0
BBX 10 7 5 19
BITMAP
0C00
1E00
1E00
3F00
7380
E1C0
8040
ENDCHAR
STARTCHAR 02C7
ENCODING 711
SWIDTH 500 0
DWIDTH 20 0
BBX 10 7 5 20
BITMAP
8040
C0C0
6180
3F00
1E00
1E00
0C00
ENDCHAR
STARTCHAR 02C9
ENCODING 713
SWIDTH 500 0
DWIDTH 20 0
BBX 12 2 4 21
BITMAP
FFF0
FFF0
ENDCHAR
STARTCHAR 02D8
ENCODING 728
SWIDTH 500 0
DWIDTH 20 0
BBX 10 6 5 20
BITMAP
8040
C0C0
E180
7F80
7F00
1E00
ENDCHAR
STARTCHAR 02D9
ENCODING 729
SWIDTH 500 0
DWIDTH 20 0
BBX 4 4 8 20
BITMAP
E0
F0
F0
60
ENDCHAR
STARTCHAR 02DA
ENCODING 730
SWIDTH 500 0
DWIDTH 20 0
BBX 8 7 6 19
BITMAP
3C
66
C3
C3
C3
66
3C
ENDCHAR
STARTCHAR 02DB
ENCODING 731
SWIDTH 500 0
DWIDTH 20 0
BBX 6 7 8 -7
BITMAP
08
30
70
60
E0
70
3C
ENDCHAR
STARTCHAR 02DC
ENCODING 732
SWIDTH 500 0
DWIDTH 20 0
BBX 12 5 4 20
BITMAP
3C10
7E30
FFE0
CFE0
03C0
ENDCHAR
STARTCHAR 02DD
ENCODING 733
SWIDTH 500 0
DWIDTH 20 0
BBX 12 6 6 20
BITMAP
1C70
1CF0
39C0
7180
6300
C200
ENDCHAR
STARTCHAR 0394
ENCODING 916
SWIDTH 600 0
DWIDTH 24 0
BBX 23 27 1 0
BITMAP
001000
003000
003800
007800
007C00
007C00
00FC00
00DE00
01DE00
019F00
018F00
030F00
030780
070780
0607C0
0603C0
0C03E0
0C01E0
1C01E0
1801F0
3800F0
3000F8
300078
600078
60007C
E0003C
FFFFFE
ENDCHAR
STARTCHAR 03A9
ENCODING 937
SWIDTH 775 0
DWIDTH 31 0
BBX 27 27 2 0
BITMAP
007FC000
03C07800
0F001E00
1E000F00
3C000780
780003C0
780003C0
F00001E0
F00001E0
F00001E0
F00001E0
F00001E0
F00001E0
F00001E0
780003C0
780003C0
38000780
1C000700
0E000E00
03803800
4060C040
40208040
602080C0
7FE0FFC0
7FE0FFC0
7FE0FFC0
7FE0FFC0
ENDCHAR
STARTCHAR 03BC
ENCODING 956
SWIDTH 600 0
DWIDTH 24 0
BBX 22 28 1 -11
BITMAP
0E0FE0
FE01E0
FC01E0
3C01E0
3C01E0
3C01E0
3C01E0
3C01E0
3C01E0
3C01E0
3C01E0
3C01E0
3E01E0
3E01E0
3F07E0
3FFDFC
3FF1F8
3BC1C0
380000
380000
380000
3C0000
3C0000
3C0000
3C0000
3C0000
3C0000
380000
ENDCHAR
STARTCHAR 03C0
ENCODING 960
SWIDTH 550 0
DWIDTH 22 0
BBX 20 20 1 -1
BITMAP
000030
1FFFF0
7FFFE0
FFFFC0
C40E00
841E00
041E00
041E00
041E00
041E00
041E00
041E00
041E00
041E10
8C1E10
8C1E10
9C1E20
F81E20
F80E20
7007C0
ENDCHAR
STARTCHAR 2010
ENCODING 8208
SWIDTH 300 0
DWIDTH 12 0
BBX 9 3 1 7
BITMAP
FF80
FF80
FF80
ENDCHAR
STARTCHAR 2013
ENCODING 8211
SWIDTH 475 0
DWIDTH 19 0
BBX 16 2 2 8
BITMAP
FFFF
FFFF
ENDCHAR
STARTCHAR 2014
ENCODING 8212
SWIDTH 750 0
DWIDTH 30 0
BBX 27 2 2 8
BITMAP
FFFFFFE0
FFFFFFE0
ENDCHAR
STARTCHAR 2018
ENCODING 8216
SWIDTH 250 0
DWIDTH 10 0
BBX 8 11 1 16
BITMAP
07
1C
38
70
70
E0
F0
F8
7C
7C
3C
ENDCHAR
STARTCHAR 2019
ENCODING 8217
SWIDTH 250 0
DWIDTH 10 0
BBX 7 12 1 15
BITMAP
38
7C
7C
3E
1E
0E
0E
0C
1C
38
70
C0
ENDCHAR
STARTCHAR 201A
ENCODING 8218
SWIDTH 250 0
DWIDTH 10 0
BBX 7 11 1 -7
BITMAP
38
7C
7C
3E
1E
0E
0C
1C
18
70
C0
ENDCHAR
STARTCHAR 201C
ENCODING 8220
SWIDTH 450 0
DWIDTH 18 0
BBX 16 11 1 16
BITMAP
0707
1C1C
3838
7070
7070
E0E0
F0F0
F8F8
7C7C
7C7C
3C3C
ENDCHAR
STARTCHAR 201D
ENCODING 8221
SWIDTH 450 0
DWIDTH 18 0
BBX 16 12 1 15
BITMAP
1C1C
3E3E
3E3E
1F1F
0F0F
0707
0707
0E0E
0E0E
1C1C
3838
E0E0
ENDCHAR
STARTCHAR 201E
ENCODING 8222
SWIDTH 450 0
DWIDTH 18 0
BBX 16 11 1 -7
BITMAP
1C1C
3E3E
3E3E
1F1F
0F0F
0707
0606
0E0E
1C1C
3838
E0E0
ENDCHAR
STARTCHAR 2020
ENCODING 8224
SWIDTH 550 0
DWIDTH 22 0
BBX 17 36 2 -10
BITMAP
00C000
01C000
03E000
03E000
01C000
00C000
00C000
00C000
00C000
60C300
F8CF80
FFFF80
FFFF80
70C300
00C000
00C000
00C000
01C000
03E000
03E000
01E000
01E000
01C000
01C000
00C000
00C000
00C000
00C000
00C000
00C000
00C000
00C000
00C000
00C000
00C000
00C000
ENDCHAR
STARTCHAR 2021
ENCODING 8225
SWIDTH 525 0
DWIDTH 21 0
BBX 17 36 2 -10
BITMAP
01C000
03C000
03E000
03E000
01C000
01C000
018000
018000
008000
608300
F89F80
FFFF80
F88F80
608300
018000
01C000
01C000
03E000
03E000
01C000
01C000
018000
608300
F08780
FFFF80
FFFF80
608300
008000
008000
018000
018000
018000
03C000
03C000
03C000
018000
ENDCHAR
STARTCHAR 2022
ENCODING 8226
SWIDTH 625 0
DWIDTH 25 0
BBX 11 10 7 8
BITMAP
0F00
3FC0
7FE0
7FE0
FFE0
FFE0
7FE0
7FE0
3FC0
0F00
ENDCHAR
STARTCHAR 2026
ENCODING 8230
SWIDTH 725 0
DWIDTH 29 0
BBX 24 6 2 -1
BITMAP
300C06
781E0F
F83E1F
F83E1F
781E0F
701C0E
ENDCHAR
STARTCHAR 2030
ENCODING 8240
SWIDTH 1025 0
DWIDTH 41 0
BBX 39 27 1 -1
BITMAP
0FC0000000
39E0380000
78F0300000
70F8700000
F078600000
F078C00000
F078C00000
F079800000
F079800000
7073000000
7873000000
3866000000
1C8E000000
030C000000
001C3C03F0
0018EE0E78
0031C71E3C
0031C79C1E
0063C7BC1E
00E3C7BC1E
00C3C7BC1E
01C3C7BC1E
0183C7BC1E
0301C71E1C
0301E71E1C
0600E60F38
00007C03E0
ENDCHAR
STARTCHAR 2039
ENCODING 8249
SWIDTH 300 0
DWIDTH 12 0
BBX 9 15 1 1
BITMAP
0080
0180
0300
0600
1E00
3C00
7800
F000
7800
1C00
0E00
0700
0300
0180
0080
ENDCHAR
STARTCHAR 203A
ENCODING 8250
SWIDTH 300 0
DWIDTH 12 0
BBX 9 15 1 1
BITMAP
C000
6000
3000
3800
1C00
0E00
0780
0780
0700
0E00
1C00
3800
7000
6000
C000
ENDCHAR
STARTCHAR 2044
ENCODING 8260
SWIDTH 100 0
DWIDTH 4 0
BBX 14 25 -5 0
BITMAP
000C
0018
0018
0030
0030
0060
0060
00C0
00C0
0180
0180
0300
0300
0700
0600
0E00
0C00
1C00
1800
3800
3000
7000
6000
E000
C000
ENDCHAR
STARTCHAR 2122
ENCODING 8482
SWIDTH 825 0
DWIDTH 33 0
BBX 31 13 1 13
BITMAP
F837C03C
87F1C078
8710E070
0710E070
0701E0B0
0701B0B0
0701B138
07019938
07019B38
0F018E38
0F038E38
0F038C78
3F87E47E
ENDCHAR
STARTCHAR 2126
ENCODING 8486
SWIDTH 775 0
DWIDTH 31 0
BBX 27 27 2 0
BITMAP
007FC000
03C07800
0F001E00
1E000F00
3C000780
780003C0
780003C0
F00001E0
F00001E0
F00001E0
F00001E0
F00001E0
F00001E0
F00001E0
780003C0
780003C0
38000780
1C000700
0E000E00
03803800
4060C040
40208040
602080C0
7FE0FFC0
7FE0FFC0
7FE0FFC0
7FE0FFC0
ENDCHAR
STARTCHAR 2202
ENCODING 8706
SWIDTH 500 0
DWIDTH 20 0
BBX 15 27 2 -1
BITMAP
01E0
0798
0708
070C
040C
000E
000E
000E
000E
000E
000E
07CE
1E2E
1C1E
3C1E
781E
781E
781E
F81E
F81C
701C
7018
7818
7830
3830
1C60
0F80
ENDCHAR
STARTCHAR 2206
ENCODING 8710
SWIDTH 600 0
DWIDTH 24 0
BBX 23 27 1 0
BITMAP
001000
003000
003800
007800
007C00
007C00
00FC00
00DE00
01DE00
019F00
018F00
030F00
030780
070780
0607C0
0603C0
0C03E0
0C01E0
1C01E0
1801F0
3800F0
3000F8
300078
600078
60007C
E0003C
FFFFFE
ENDCHAR
STARTCHAR 220F
ENCODING 8719
SWIDTH 825 0
DWIDTH 33 0
BBX 31 39 1 -9
BITMAP
FFFFFFFE
0F0001E0
0F0001E0
0F0001E0
0F0001E0
0F0001E0
0F0001E0
0F0001E0
0F0001E0
0F0001E0
0F0001E0
0F0001E0
0F0001E0
0F0001E0
0F0001E0
0F0001E0
0F0001E0
0F0001E0
0F0001E0
0F0001E0
0F0001E0
0F0001E0
0F0001E0
0F0001E0
0F0001E0
0F0001E0
0F0001E0
0F0001E0
0F0001E0
0F0001E0
0F0001E0
0F0001E0
0F0001E0
0F0001E0
0F0001E0
0F0001E0
0F0001E0
0F0001E0
FFE00FFE
ENDCHAR
STARTCHAR 2211
ENCODING 8721
SWIDTH 750 0
DWIDTH 30 0
BBX 26 39 1 -9
BITMAP
3FFFFF00
1F007F00
1F001F00
0F800F00
07C00700
03C00300
03E00300
01F00180
00F80180
00F80000
007C0000
003E0000
001E0000
001F0000
000F8000
0007C000
0007C000
0003E000
0001F000
0001F000
0000E000
0000C000
00018000
00030000
00070000
000E0000
001C0000
00380000
00700000
00E000C0
01C000C0
03800180
07000180
06000380
0C001F80
1FFFFF80
3FFFFF00
7FFFFF00
FFFFFF00
ENDCHAR
STARTCHAR 2212
ENCODING 8722
SWIDTH 525 0
DWIDTH 21 0
BBX 17 3 2 11
BITMAP
FFFF80
FFFF80
FFFF80
ENDCHAR
STARTCHAR 2219
ENCODING 8729
SWIDTH 250 0
DWIDTH 10 0
BBX 5 5 2 6
BITMAP
70
F8
F8
F8
70
ENDCHAR
STARTCHAR 221A
ENCODING 8730
SWIDTH 550 0
DWIDTH 22 0
BBX 24 33 0 -1
BITMAP
00000F
000018
000018
000038
000030
000030
000070
000060
000060
0000C0
0000C0
0000C0
000180
1C0180
7C0380
FE0300
9E0300
1E0700
1F0600
0F0600
0F0C00
0F8C00
078C00
079800
03D800
03F800
03F000
01F000
01F000
01E000
00E000
00C000
00C000
ENDCHAR
STARTCHAR 221E
ENCODING 8734
SWIDTH 725 0
DWIDTH 29 0
BBX 24 14 2 5
BITMAP
0F00F0
3FC3FC
7FE786
70EF02
C03E01
C01C01
801C01
803801
803C01
807403
40F706
61E3FE
3FC1FC
0F00F8
ENDCHAR
STARTCHAR 222B
ENCODING 8747
SWIDTH 275 0
DWIDTH 11 0
BBX 19 37 -4 -7
BITMAP
000780
000BC0
0011E0
0031E0
0030C0
007000
007000
007000
007000
007000
00F000
00F000
00F000
00F000
00E000
00E000
00E000
00E000
00E000
00E000
00E000
00E000
00E000
00E000
00E000
00E000
00E000
00E000
00E000
00C000
01C000
01C000
618000
F18000
F10000
7A0000
3C0000
ENDCHAR
STARTCHAR 2248
ENCODING 8776
SWIDTH 550 0
DWIDTH 22 0
BBX 20 9 1 5
BITMAP
1F8030
7FF070
F07FE0
C00F80
000000
1F8030
7FF070
F07FE0
C00F80
ENDCHAR
STARTCHAR 2260
ENCODING 8800
SWIDTH 550 0
DWIDTH 22 0
BBX 18 17 2 1
BITMAP
000100
000380
000700
000E00
000C00
FFFFC0
FFFFC0
007000
00E000
01C000
FFFFC0
FFFFC0
0C0000
1C0000
380000
700000
200000
ENDCHAR
STARTCHAR 2264
ENCODING 8804
SWIDTH 550 0
DWIDTH 22 0
BBX 18 19 2 0
BITMAP
000040
0007C0
003F80
01FC00
0FC000
7E0000
F00000
F00000
7F0000
0FE000
01FC00
003F80
0003C0
000040
000000
000000
000000
FFFFC0
FFFFC0
ENDCHAR
STARTCHAR 2265
ENCODING 8805
SWIDTH 550 0
DWIDTH 22 0
BBX 18 19 2 0
BITMAP
800000
F80000
7F0000
0FE000
01FC00
001F80
0003C0
0003C0
003F80
01FC00
0FE000
7F0000
F00000
800000
000000
000000
000000
FFFFC0
FFFFC0
ENDCHAR
STARTCHAR 22F2
ENCODING 8946
SWIDTH 550 0
DWIDTH 22 0
BBX 20 9 1 5
BITMAP
1F8030
7FF070
F07FE0
C00F80
000000
1F8030
7FF070
F07FE0
C00F80
ENDCHAR
STARTCHAR 25CA
ENCODING 9674
SWIDTH 500 0
DWIDTH 20 0
BBX 20 39 0 -8
BITMAP
006000
006000
00F000
00F000
01B000
019800
039800
030C00
070C00
060600
0E0600
0C0300
1C0300
180180
380180
3000C0
3000C0
600060
600060
C00070
600060
6000E0
3000C0
3001C0
180180
180180
1C0300
0C0300
0E0600
060600
070C00
030C00
039800
019800
01B800
00F000
00F000
006000
006000
ENDCHAR
STARTCHAR F000
ENCODING 61440
SWIDTH 800 0
DWIDTH 32 0
BBX 27 33 2 -1
BITMAP
00001800
00007800
0000F800
0001F000
0001F000
0003E000
00038000
01E03C00
0FFFFF00
1FFFFFC0
3FFFFFC0
3FFFFF80
7FFFFF00
7FFFFF00
7FFFFE00
FFFFFE00
FFFFFE00
FFFFFE00
FFFFFE00
FFFFFE00
FFFFFE00
7FFFFF00
7FFFFF80
7FFFFFC0
3FFFFFE0
3FFFFFE0
1FFFFFC0
1FFFFFC0
0FFFFF80
0FFFFF00
07FFFF00
03F8FE00
01E03800
ENDCHAR
STARTCHAR F001
ENCODING 61441
SWIDTH 600 0
DWIDTH 24 0
BBX 22 29 1 -1
BITMAP
003F00
00FFC0
03FFC0
0783C0
0701C0
0E0000
0E0000
1E0000
1E0000
1E0000
1E0000
3FFFE0
7FFFE0
1E07E0
1E03C0
1E03C0
1E03C0
1E03C0
1E03C0
1E03C0
1E03C0
1E03C0
1E03C0
1E03C0
1E03C0
1E03C0
1E03C0
3F8FF0
C0CE0C
ENDCHAR
STARTCHAR F002
ENCODING 61442
SWIDTH 600 0
DWIDTH 24 0
BBX 22 29 1 -1
BITMAP
003E60
00FFE0
03FFE0
0783E0
0F01E0
0E01E0
1E01E0
1E01E0
1E01E0
1E01E0
1E01E0
3FF1E0
FFF1E0
1E01E0
1E01E0
1E01E0
1E01E0
1E01E0
1E01E0
1E01E0
1E01E0
1E01E0
1E01E0
1E01E0
1E01E0
1E01E0
1E01E0
3F07F8
FFCFFC
ENDCHAR
ENDFONT
